SplineFontDB: 3.2
FontName: NotoSerifTagalog-Regular
FullName: Noto Serif Tagalog Regular
FamilyName: Noto Serif Tagalog
Weight: Regular
Copyright: Copyright (c) 2020, The Noto Tagalog Project Authors\n\nThis Font Software is licensed under the SIL Open Font License, Version 1.1.
Version: 3.0
ItalicAngle: 0
UnderlinePosition: -250
UnderlineWidth: 100
Ascent: 1600
Descent: 400
InvalidEm: 0
UFOAscent: 1600
UFODescent: -400
LayerCount: 2
Layer: 0 0 "Back" 1
Layer: 1 0 "Fore" 0 "glyphs"
StyleMap: 0x0040
FSType: 0
OS2Version: 0
OS2_WeightWidthSlopeOnly: 0
OS2_UseTypoMetrics: 0
CreationTime: 1596957163
ModificationTime: 1603102190
PfmFamily: 17
TTFWeight: 400
TTFWidth: 5
LineGap: 0
VLineGap: 0
Panose: 2 11 5 2 4 5 4 2 2 4
OS2TypoAscent: 2138
OS2TypoAOffset: 0
OS2TypoDescent: -586
OS2TypoDOffset: 0
OS2TypoLinegap: 0
OS2WinAscent: 2138
OS2WinAOffset: 0
OS2WinDescent: 586
OS2WinDOffset: 0
HheadAscent: 2138
HheadAOffset: 0
HheadDescent: -586
HheadDOffset: 0
OS2SubXSize: 1300
OS2SubYSize: 1200
OS2SubXOff: 0
OS2SubYOff: 150
OS2SupXSize: 1300
OS2SupYSize: 1200
OS2SupXOff: 0
OS2SupYOff: 700
OS2StrikeYSize: 100
OS2StrikeYPos: 644
OS2CapHeight: 1428
OS2XHeight: 1072
OS2FamilyClass: 768
OS2Vendor: 'GOOG'
OS2CodePages: 00000001.00000000
OS2UnicodeRanges: 80000003.00002000.00100000.00000000
Lookup: 258 0 0 "OldRaKern" { "OldRaKern-1" [300,0,2] } ['kern' ('DFLT' <'dflt' > 'hano' <'dflt' > 'tagl' <'TGL ' 'dflt' > ) ]
Lookup: 258 0 0 "PamudpodKern" { "PamudpodKern-1" [150,0,2] } ['kern' ('DFLT' <'dflt' > 'hano' <'dflt' > 'tagl' <'TGL ' 'dflt' > ) ]
Lookup: 260 0 0 "markMarkPositioninginTagaloglookup0" { "markMarkPositioninginTagaloglookup0 subtable"  } ['mark' ('DFLT' <'dflt' > 'hano' <'dflt' > 'tagl' <'dflt' > 'tagl' <'TGL ' > ) ]
Lookup: 260 0 0 "markMarkPositioninginTagaloglookup1" { "markMarkPositioninginTagaloglookup1 subtable"  } ['mark' ('DFLT' <'dflt' > 'hano' <'dflt' > 'tagl' <'dflt' > 'tagl' <'TGL ' > ) ]

StartChar: .notdef
Encoding: 0 0 0
GlifName: _notdef
Width: 1200
VWidth: 0
Flags: HMW
LayerCount: 2
Fore
SplineSet
188 0 m 257
 188 1428 l 257
 1010 1428 l 257
 1010 0 l 257
 188 0 l 257
290 102 m 257
 908 102 l 257
 908 1326 l 257
 290 1326 l 257
 290 102 l 257
EndSplineSet
EndChar

StartChar: uni1700
Encoding: 5888 5888 4
GlifName: uni1700
Width: 2028
VWidth: 0
GlyphClass: 2
Flags: HMW
LayerCount: 2
Back
SplineSet
204.471679688 816 m 5
 552.471679688 816 l 1029
204.471679688 1106 m 5
 944.471679688 1106 l 1029
230.471679688 1490 m 4
 338.130859375 1474.04003906 425.069335938 1420.75195312 491.286132812 1330.13769531 c 4
 494.676757812 1325.49804688 498.405273438 1320.11816406 502.471679688 1314 c 4
 554.717773438 1234.42871094 581.010742188 1136.37792969 581.3515625 1019.84960938 c 4
 581.3515625 1008.64550781 581.05859375 996.696289062 580.471679688 984 c 4
 577.159179688 915.984375 555.276367188 799.573242188 514.82421875 634.766601562 c 4
 511.010742188 619.228515625 507.5078125 604.666015625 504.315429688 591.078125 c 4
 485.991210938 512.853515625 475.709960938 446.934570312 473.470703125 393.323242188 c 4
 473.201171875 386.338867188 473.052734375 378.778320312 473.026367188 370.640625 c 4
 473.026367188 304.787109375 484.841796875 247.240234375 508.471679688 198 c 4
 523.754882812 166.705078125 543.98046875 139.9375 569.1484375 117.69921875 c 4
 594.9609375 95.4013671875 624.735351562 80.16796875 658.471679688 72 c 4
 672.750976562 68.712890625 688.171875 66.99609375 704.735351562 66.849609375 c 4
 731.73046875 66.849609375 759.254882812 71.8681640625 787.30859375 81.90625 c 4
 823.651367188 95.2314453125 860.705078125 117.928710938 898.471679688 150 c 4
 954.831054688 198.28515625 1016.83105469 276.28515625 1084.47167969 384 c 6
 1306.47167969 738 l 6
 1318.62207031 757.374023438 1336.47363281 786.69140625 1360.02832031 825.951171875 c 4
 1413.91113281 915.76171875 1457.03125 982.22265625 1489.38867188 1025.33300781 c 4
 1527.578125 1075.99414062 1567.66503906 1115.85546875 1609.64941406 1144.91699219 c 4
 1659.98046875 1179.20898438 1712.92089844 1197.5703125 1768.47167969 1200 c 4
 1771.39941406 1200.10351562 1774.32910156 1200.15527344 1777.26074219 1200.15527344 c 4
 1825.96386719 1200.15527344 1870.67675781 1186.98925781 1911.3984375 1160.65625 c 4
 1954.1171875 1132.46972656 1984.47460938 1093.58496094 2002.47167969 1044 c 1028
EndSplineSet
Fore
SplineSet
162.073985129 749.565848649 m 1
 246.869374247 882.434151351 l 1
 594.869374247 882.434151351 l 1
 510.073985129 749.565848649 l 1
 162.073985129 749.565848649 l 1
162.073985129 1039.56584865 m 1
 246.869374247 1172.43415135 l 1
 986.869374247 1172.43415135 l 1
 902.073985129 1039.56584865 l 1
 162.073985129 1039.56584865 l 1
277.921451535 1556.07780474 m 1
 507.957937434 1521.97599066 647.011831788 1326.84179487 647.785713851 1062.24730394 c 0
 647.785713851 948.319402803 626.737280814 856.788263516 579.645666765 664.931686976 c 0
 558.959848964 580.646911798 539.692785572 484.722809214 539.460518539 413.038319559 c 0
 539.460518539 275.73925725 596.658629855 164.651681973 708.145320328 137.659420086 c 0
 720.232472919 134.876943343 733.262600007 133.418987894 747.303841948 133.283843397 c 0
 816.367328905 133.349625269 859.478544965 165.544407019 899.016713548 205.082575605 c 0
 932.758349712 238.824211772 980.087805013 299.296084818 1032.76775474 383.186683892 c 2
 1254.76936473 737.189251123 l 2
 1307.96483149 822.010410541 1402.13790297 978.025619528 1445.0944174 1035.257325 c 0
 1523.48344299 1139.24616254 1659.50782516 1266.58942479 1819.65843675 1266.58942479 c 0
 1943.8862093 1266.58942479 2032.56290628 1192.22928967 2067.26885343 1096.60855782 c 1
 1937.67450595 991.391442178 l 1
 1909.29946895 1069.56944986 1833.95904625 1133.72112209 1734.86304763 1133.72112209 c 0
 1632.14802808 1133.72112209 1579.07998023 1075.63123865 1533.68292636 1015.40869062 c 0
 1505.02957398 977.233334776 1402.70377867 809.814316286 1358.17399465 738.810748877 c 2
 1136.17560464 384.813316108 l 2
 1064.52673475 270.715511349 1002.73726403 185.778559956 916.022640298 111.814226016 c 0
 844.718425281 51.2628923908 770.270346885 0.415458023984 662.337657003 0.415458023984 c 2
 661.993375762 0.415458023984 l 2
 551.112636098 1.39606712428 482.231814563 66.1484892499 444.59669256 143.212714157 c 0
 419.352102988 195.817693922 406.592215837 257.673829817 406.592215837 328.242930441 c 0
 406.865416004 412.560598321 426.916063322 510.534268598 450.002770735 604.601516148 c 0
 495.931667371 791.721050078 514.917411149 878.635352479 514.917411149 977.451914821 c 0
 514.224588649 1214.33169981 388.4249458 1393.47217258 183.021907841 1423.92219526 c 1
 277.921451535 1556.07780474 l 1
EndSplineSet
EndChar

StartChar: uni1701
Encoding: 5889 5889 5
GlifName: uni1701
Width: 2022
VWidth: 0
GlyphClass: 2
Flags: HMW
LayerCount: 2
Back
SplineSet
94 274 m 4
 172.155273438 235.278320312 254.212890625 217.85546875 340.173828125 221.73046875 c 4
 427.263671875 226.729492188 507.206054688 252.15234375 580 298 c 4
 651.756835938 344.692382812 707.891601562 404.84765625 748.404296875 478.466796875 c 4
 788.583007812 553.888671875 808.44921875 633.733398438 808 718 c 5
 812.791015625 627.85546875 836.791015625 543.85546875 880 466 c 4
 903.966796875 424.025390625 931.966796875 386.025390625 964 352 c 5
 1020.74023438 390.142578125 1068.74023438 436.142578125 1108 490 c 4
 1157.29296875 559.4375 1189.29296875 635.4375 1204 718 c 5
 1202.79882812 615.637695312 1226.79882812 521.637695312 1276 436 c 4
 1315.56152344 369.471679688 1364.828125 317.140625 1423.79980469 279.006835938 c 4
 1489.38574219 238.163085938 1558.11914062 218.494140625 1630 220 c 4
 1704.65429688 222.908203125 1770.65429688 246.908203125 1828 292 c 1028
106 1084 m 4
 218.098632812 983.047851562 352.098632812 927.047851562 508 916 c 4
 624.853515625 908.100585938 782.081054688 935.5234375 979.682617188 998.26953125 c 4
 986.47265625 1000.42871094 992.974609375 1002.50292969 999.188476562 1004.49023438 c 4
 1191.60742188 1066.09472656 1340.92773438 1096.984375 1447.1484375 1097.16015625 c 4
 1462.26953125 1097.109375 1476.55371094 1096.72265625 1490 1096 c 4
 1656.81738281 1085.59667969 1797.48339844 1025.59667969 1912 916 c 1028
EndSplineSet
Fore
SplineSet
788.824625782 467.981424561 m 1
 692.613491224 310.305349428 501.93774955 156.189050352 270.519072986 156.189050352 c 0
 188.23420166 156.189050352 111.016937473 174.813945111 37.9006508357 211.039081389 c 1
 150.099349164 336.960918611 l 1
 219.075727779 302.786881409 290.399148866 286.214322101 363.101814109 286.214322101 c 0
 526.46288637 286.214322101 634.881776584 357.960318819 693.185728567 463.403251154 c 0
 723.774908479 521.113409111 742.996984251 591.010342785 742.996984251 669.094905131 c 0
 742.996984251 669.940427625 742.994730426 670.786910133 742.990212802 671.63434758 c 2
 872.968314602 765.804157152 l 1
 879.859025918 636.153162436 936.778123708 512.78458321 1007.45794588 430.624586595 c 1
 1074.01348982 488.364235109 1120.34469416 570.389038128 1139.64820575 678.755311936 c 1
 1269.00799651 763.815365841 l 1
 1266.82149813 577.484827885 1360.36813777 419.383038384 1481.2451457 341.218428729 c 0
 1542.43746789 303.110809842 1605.47395151 284.930652236 1668.60736237 284.930652236 c 0
 1733.12761553 284.930652236 1786.73795398 305.600872305 1821.00620056 332.546514783 c 1
 1834.99379944 251.453485217 l 1
 1765.58023818 196.872548296 1683.45011266 154.908695369 1576.07950684 154.908695369 c 0
 1356.58663906 154.908695369 1212.84311554 324.081308929 1161.51244801 501.099580565 c 1
 1109.52171691 425.10831778 1036.37504937 354.812603735 960.581210312 303.861590588 c 1
 903.587702238 292.213577932 l 1
 856.781967539 341.930223514 817.281248707 400.304554378 788.824625782 467.981424561 c 1
165.547616631 1144.63218935 m 1
 282.260844365 1039.52429645 420.658790522 979.688380096 594.827924583 979.688380096 c 0
 701.316277382 979.688380096 839.848278087 1006.25909517 1011.28706668 1060.69750226 c 2
 1030.71570671 1066.89353098 l 2
 1226.69437179 1129.63769643 1381.05447403 1161.98421302 1493.45151118 1162.17021528 c 0
 1693.92657119 1161.49695881 1846.26003336 1096.54643915 1971.87368821 976.329463552 c 5
 1852.12631179 855.670536448 l 1
 1731.92433053 970.708337593 1587.90724975 1031.52188629 1400.84536382 1032.15009722 c 0
 1300.80099473 1031.98453698 1156.52047197 1002.55175669 967.661246418 942.08693778 c 2
 948.078167695 935.841560242 l 2
 768.503151035 878.819587905 619.72303804 849.661695548 502.599772779 849.661695548 c 0
 315.163696992 849.661695548 168.556943105 913.404670778 46.4523833692 1023.36781065 c 1
 165.547616631 1144.63218935 l 1
EndSplineSet
EndChar

StartChar: uni1702
Encoding: 5890 5890 6
GlifName: uni1702
Width: 1070
VWidth: 0
GlyphClass: 2
Flags: HMW
LayerCount: 2
Back
SplineSet
252 1124 m 4
 387.857421875 1195.04296875 517.190429688 1221.04296875 640 1202 c 4
 709.822265625 1189.96875 765.426757812 1163.56347656 806.814453125 1122.78417969 c 4
 829.66796875 1098.88378906 846.443359375 1072.7578125 857.141601562 1044.40625 c 4
 867.623046875 1013.83984375 871.2421875 983.038085938 868 952 c 4
 863.713867188 919.828125 853.037109375 889.44140625 835.969726562 860.83984375 c 4
 818.870117188 833.842773438 797.546875 809.5625 772 788 c 4
 726.157226562 750.754882812 672.623046875 724.267578125 611.396484375 708.538085938 c 4
 566.458984375 697.565429688 506.66015625 692.052734375 432 692 c 6
 396 692 l 5
 492 692 l 6
 558.426757812 691.778320312 608.631835938 688.844726562 642.616210938 683.200195312 c 4
 696.908203125 673.364257812 743.692382812 655.736328125 782.966796875 630.31640625 c 4
 826.918945312 600.326171875 860.012695312 563.172851562 882.247070312 518.856445312 c 4
 904.380859375 471.923828125 912.965820312 422.971679688 908 372 c 4
 902.336914062 324.517578125 886.130859375 280.473632812 859.379882812 239.868164062 c 4
 832.594726562 201.141601562 798.834960938 168.33984375 758.100585938 141.46484375 c 4
 684.283203125 94.37890625 594.25 68.5576171875 488 64 c 4
 366.532226562 59.671875 243.866210938 81.0048828125 120 128 c 1028
EndSplineSet
Fore
SplineSet
758.193458838 731.442280568 m 1
 875.497813929 692.264769316 974.387083803 597.965063341 974.387083803 446.20149568 c 0
 974.387083803 288.717606893 856.973554502 159.676654249 751.549327106 91.27442574 c 0
 658.68650983 32.0399657302 552.953550391 -1.55999467835 410.932147823 -1.55999467835 c 0
 295.463335527 -1.55999467835 180.620279276 20.6697979285 65.4311909948 64.3727953924 c 1
 174.568809005 191.627204608 l 1
 286.22186361 149.265786221 396.207304854 128.46497536 503.554153746 128.46497536 c 0
 637.258922553 128.46497536 757.381913099 160.079615757 811.374501564 236.681281758 c 0
 827.203897404 261.293132423 844.342762696 303.803112436 844.342762696 353.430342212 c 0
 844.342762696 452.720470873 787.953812325 525.488626985 724.986773889 568.453449131 c 0
 648.898610344 617.700656054 580.440104217 626.540275393 445.697597153 626.98993872 c 0
 425.763452763 626.98993872 405.829308374 626.989828049 385.804077964 626.989761258 c 6
 349.804077964 626.989761258 l 5
 442.195922036 757.010238742 l 1
 478.195922036 757.010238742 l 2
 610.522682081 757.103704029 700.157375134 776.898472095 761.235015279 825.525011606 c 0
 785.248109954 846.271150789 804.125168711 877.760310325 804.125168711 927.580292057 c 0
 804.125168711 986.684170894 779.287027008 1028.60585462 746.480544919 1062.9151377 c 0
 694.902138878 1113.73534164 617.147745928 1143.02848264 515.064261825 1143.02848264 c 0
 422.130087546 1143.02848264 328.647562719 1116.728914 235.364933284 1067.94928285 c 1
 268.635066716 1180.05071715 l 1
 389.627026328 1243.32019398 502.307573841 1273.04781715 607.424878967 1273.04781715 c 0
 762.527274574 1273.04781715 880.049287133 1212.10717872 920.969206193 1098.41984263 c 0
 929.572255763 1073.33128849 934.173043271 1047.51428979 934.173043271 1020.33843063 c 0
 934.173043271 893.061028452 839.374556836 791.007873174 758.193458838 731.442280568 c 1
EndSplineSet
EndChar

StartChar: uni1703
Encoding: 5891 5891 7
GlifName: uni1703
Width: 1968
VWidth: 0
GlyphClass: 2
Flags: HMW
AnchorPoint: "Anchor1" 1078 0 basechar 0
AnchorPoint: "Anchor0" 976 1386 basechar 0
AnchorPoint: "Anchor-1" 1078 0 basechar 0
AnchorPoint: "Anchor-0" 976 1386 basechar 0
LayerCount: 2
Back
SplineSet
996 964 m 5
 996 268 l 1029
142 264 m 4
 231.748046875 172.501953125 341.748046875 122.501953125 472 114 c 4
 535.115234375 110.59375 599.880859375 117.698242188 666.294921875 135.314453125 c 4
 712.279296875 147.869140625 773.513671875 170.763671875 850 204 c 6
 1126 324 l 6
 1211.93359375 361.146484375 1279.00683594 386.455078125 1327.22070312 399.927734375 c 4
 1401.43457031 420.025390625 1472.36132812 428.716796875 1540 426 c 4
 1648.53710938 420.524414062 1746.53710938 388.524414062 1834 330 c 1028
142 976 m 4
 231.748046875 884.500976562 341.748046875 834.500976562 472 826 c 4
 535.112304688 822.59375 599.876953125 829.698242188 666.294921875 847.314453125 c 4
 712.271484375 859.866210938 773.505859375 882.76171875 850 916 c 6
 1126 1036 l 6
 1211.92871094 1073.14453125 1279.00195312 1098.45410156 1327.22070312 1111.92675781 c 4
 1401.43554688 1132.02539062 1472.36230469 1140.71679688 1540 1138 c 4
 1648.53613281 1132.52441406 1746.53613281 1100.52441406 1834 1042 c 1028
EndSplineSet
Fore
SplineSet
202.203881225 324.003303394 m 1
 293.87846502 230.541153995 406.050981684 178.183661961 548.966517214 178.183661961 c 0
 599.289996827 178.183661961 650.000884454 185.142588937 700.844784248 198.610128424 c 0
 741.749497645 209.798043789 799.727935741 231.293468112 873.651943381 263.416366524 c 2
 1149.84039769 383.498066534 l 2
 1238.16853001 421.679637254 1307.89003572 448.399081535 1361.67805538 463.197959727 c 0
 1431.76840422 482.178937148 1498.70117423 491.482401692 1562.15898679 491.482401692 c 0
 1690.78560934 491.482401692 1796.34438498 455.856785261 1891.86614632 391.939904935 c 1
 1776.13385368 268.060095065 l 1
 1685.51726096 328.694759153 1587.10077016 361.488089764 1469.23745599 361.488089764 c 0
 1412.22379575 361.488089764 1353.58689754 353.108481234 1293.01176054 336.724738792 c 0
 1249.97270647 324.675147981 1185.7786928 300.647927771 1102.15960231 264.501933466 c 2
 826.348056619 144.583633476 l 2
 695.249484735 87.6161301487 608.469685835 48.1605317147 456.654903236 48.1605317147 c 0
 298.914771073 48.1605317147 179.012518395 104.88467134 81.7961187747 203.996696606 c 1
 202.203881225 324.003303394 l 1
202.203936089 1036.00324746 m 1
 293.878203821 942.540422764 406.050476413 890.183654371 548.965490893 890.183654371 c 0
 599.286948791 890.183654371 649.997646229 897.142518138 700.845714407 910.610378575 c 0
 741.740368725 921.794844415 799.718448681 943.290739033 873.651943381 975.416366524 c 2
 1149.84026042 1095.4980072 l 2
 1238.1619815 1133.67696849 1307.88487482 1160.39719607 1361.6775122 1175.19683606 c 0
 1431.76909095 1194.17881909 1498.70214024 1203.4824005 1562.15939667 1203.4824005 c 0
 1690.78500771 1203.4824005 1796.34339574 1167.85673352 1891.86608117 1103.93994853 c 1
 1776.13391883 980.060051469 l 1
 1685.51632853 1040.69470606 1587.10011935 1073.48808766 1469.23790975 1073.48808766 c 0
 1412.22457701 1073.48808766 1353.58730131 1065.10828837 1293.01119068 1048.72361054 c 0
 1249.9688228 1036.67440316 1185.77508349 1012.64652101 1102.15973958 976.501992801 c 2
 826.348056619 856.583633476 l 2
 695.239272713 799.61416368 608.470966159 760.160539414 456.653413485 760.160539414 c 0
 298.913985521 760.160539414 179.011956044 816.884186835 81.7960639106 915.99675254 c 5
 202.203936089 1036.00324746 l 1
915.224789763 940.15769378 m 1
 1076.77521024 987.84230622 l 1
 1076.77521024 291.84230622 l 1
 915.224789763 244.15769378 l 1
 915.224789763 940.15769378 l 1
EndSplineSet
EndChar

StartChar: uni1704
Encoding: 5892 5892 8
GlifName: uni1704
Width: 1732
VWidth: 0
GlyphClass: 2
Flags: HMW
AnchorPoint: "Anchor1" 987 -27 basechar 0
AnchorPoint: "Anchor0" 813 1467 basechar 0
AnchorPoint: "Anchor-1" 1090 0 basechar 0
AnchorPoint: "Anchor-0" 800 1386 basechar 0
LayerCount: 2
Back
SplineSet
854 1124 m 4
 907.782226562 1163.81542969 973.782226562 1196.67675781 1057.484375 1196.67675781 c 4
 1210.79199219 1196.67675781 1285.25878906 1088.20996094 1298.88769531 945.125 c 4
 1300.96679688 921.162109375 1302.00585938 860.328125 1302.00585938 762.62109375 c 4
 1302.00585938 758.48046875 1302.00390625 754.2734375 1302 750 c 6
 1302 348 l 5
 1303.45117188 141.623046875 1391.5234375 75.978515625 1590 66 c 6
 1630 64 l 1029
262 1124 m 0
 369.138671875 1180.02539062 472.220703125 1208.03808594 571.244140625 1208.03808594 c 0
 718.375976562 1208.03808594 827.079101562 1150.578125 867.141601562 1044.40625 c 0
 875.146484375 1021.06152344 879.149414062 997.579101562 879.149414062 973.959960938 c 0
 879.149414062 889.22265625 831.2734375 829.588867188 782 788 c 0
 694.255859375 716.711914062 604.319335938 692.114257812 442 692 c 1
 502 692 l 2
 640.975585938 691.536132812 713.763671875 681.579101562 792.966796875 630.31640625 c 0
 862.703125 582.732421875 919.365234375 507.584960938 919.365234375 399.815429688 c 0
 919.365234375 277.86328125 846.291992188 193.052734375 768.100585938 141.46484375 c 0
 687.434570312 90.0107421875 589.360351562 63.4521484375 467.243164062 63.4521484375 c 0
 355.833984375 63.4521484375 243.419921875 84.9677734375 130 128 c 1024
EndSplineSet
Fore
SplineSet
834.3671875 1153.02050781 m 1
 902.627929688 1203.5546875 994.538085938 1254.97265625 1107.01953125 1254.97265625 c 0
 1275.9609375 1254.97265625 1355.32714844 1140.62304688 1369.89550781 987.6796875 c 0
 1372.14355469 961.758789062 1373.09667969 901.24609375 1373.09667969 803.193359375 c 2
 1373.09082031 790.583007812 l 1
 1373.09082031 388.75390625 l 1
 1374.45117188 195.216796875 1450.94628906 133.831054688 1641.62695312 124.244140625 c 2
 1681.62695312 122.244140625 l 1
 1578.37304688 5.755859375 l 1
 1538.37304688 7.755859375 l 2
 1328.60839844 18.30078125 1231 92 1230.91015625 307.24609375 c 2
 1230.91503906 722.048828125 l 2
 1230.91503906 819.41015625 1229.79003906 880.565429688 1227.87988281 902.5703125 c 0
 1215.33496094 1034.27832031 1146.70898438 1138.38085938 1007.94921875 1138.38085938 c 0
 945.138671875 1138.38085938 907.944335938 1120.38085938 873.6328125 1094.97949219 c 1
 834.3671875 1153.02050781 l 1
728.97265625 731.961914062 m 1
 845.104492188 693.280273438 944.375 598.182617188 944.375 446.01171875 c 0
 944.375 323.288085938 884.765625 236.877929688 814.927734375 167.040039062 c 0
 711.681640625 63.7939453125 576.668945312 -1.5576171875 381.047851562 -1.5576171875 c 0
 265.555664062 -1.5576171875 150.666992188 20.65234375 35.431640625 64.373046875 c 1
 144.568359375 191.626953125 l 1
 256.173828125 149.284179688 366.11328125 128.462890625 473.439453125 128.462890625 c 0
 654.150390625 128.462890625 814.354492188 175.01171875 814.354492188 353.620117188 c 0
 814.354492188 451.916992188 759.850585938 524.194335938 694.986328125 568.453125 c 0
 619.012695312 617.626953125 553.228515625 626.53125 415.697265625 626.990234375 c 2
 355.803710938 626.990234375 l 1
 448.172851562 757.009765625 l 1
 578.549804688 757.102539062 663.794921875 771.2890625 731.1953125 825.487304688 c 0
 757.721679688 848.233398438 774.138671875 875.063476562 774.138671875 927.763671875 c 0
 774.138671875 986.461914062 747.241210938 1032.52929688 715.7578125 1064.01171875 c 0
 664.333984375 1115.43554688 583.807617188 1143.02832031 485.048828125 1143.02832031 c 0
 391.899414062 1143.02832031 298.728515625 1116.77148438 205.365234375 1067.94921875 c 1
 238.634765625 1180.05078125 l 1
 359.549804688 1243.27929688 472.541015625 1273.04882812 577.440429688 1273.04882812 c 0
 731.703125 1273.04882812 847.419921875 1213.85546875 890.780273438 1098.94433594 c 0
 899.772460938 1073.96289062 904.159179688 1047.37988281 904.159179688 1020.15527344 c 0
 904.159179688 886.133789062 808.302734375 790.762695312 728.97265625 731.961914062 c 1
EndSplineSet
EndChar

StartChar: uni1705
Encoding: 5893 5893 9
GlifName: uni1705
Width: 2022
VWidth: 0
GlyphClass: 2
Flags: HMW
AnchorPoint: "Anchor1" 1128 0 basechar 0
AnchorPoint: "Anchor0" 976 1386 basechar 0
AnchorPoint: "Anchor-1" 1128 0 basechar 0
AnchorPoint: "Anchor-0" 976 1386 basechar 0
LayerCount: 2
Back
SplineSet
1480 168 m 4
 1586.13574219 196.000976562 1674.13574219 248.000976562 1744 324 c 4
 1783.28808594 368.063476562 1811.72460938 414.749023438 1829.31054688 464.057617188 c 4
 1848.14746094 520.080078125 1852.50097656 574.28515625 1842.37304688 626.674804688 c 4
 1829.90527344 683.903320312 1803.22070312 730.927734375 1762.31933594 767.747070312 c 4
 1718.96679688 804.775390625 1668.86035156 824.859375 1612 828 c 4
 1564.86035156 829.524414062 1518.08789062 819.317382812 1471.68261719 797.380859375 c 4
 1437.11230469 780.353515625 1397.21777344 753.2265625 1352 716 c 4
 1287.04199219 662.923828125 1238.47363281 628.927734375 1206.29296875 614.01171875 c 4
 1178.51757812 601.813476562 1150.08691406 593.41796875 1121 588.826171875 c 4
 1098.56347656 585.631835938 1068.89746094 584.0234375 1032 584 c 6
 956 584 l 1029
360 1224 m 5
 296 1188 l 6
 253.276367188 1163.234375 223.259765625 1140.12695312 205.94921875 1118.67675781 c 4
 181.533203125 1085.90820312 170.217773438 1050.34863281 172 1012 c 4
 175.802734375 967.936523438 194.290039062 931.330078125 227.463867188 902.180664062 c 4
 260.178710938 875.481445312 299.024414062 861.420898438 344 860 c 4
 387.8671875 859.680664062 447.795898438 876.575195312 523.787109375 910.682617188 c 4
 598.943359375 943.796875 659.014648438 960.236328125 704 960 c 4
 750.987304688 958.556640625 793.140625 945.342773438 830.459960938 920.356445312 c 4
 866.390625 894.748046875 894.99609375 860.880859375 916.275390625 818.75390625 c 4
 948.688476562 751.7109375 963.262695312 664.126953125 960 556 c 4
 957.712890625 495.408203125 950.0234375 443.669921875 936.931640625 400.786132812 c 4
 918.958984375 345.612304688 891.981445312 301.350585938 856 268 c 4
 814.619140625 231.561523438 765.1484375 209.862304688 707.587890625 202.900390625 c 4
 665.712890625 198.573242188 611.184570312 202.939453125 544 216 c 4
 474.624023438 229.552734375 425.060546875 236.076171875 395.310546875 235.5703125 c 4
 337.8125 233.676757812 291.375 217.819335938 256 188 c 4
 234.259765625 168.09375 218.919921875 145.471679688 209.981445312 120.133789062 c 4
 201.462890625 92.2431640625 200.650390625 64.994140625 207.543945312 38.38671875 c 4
 216.15625 10.5908203125 230.977539062 -12.248046875 252.009765625 -30.1298828125 c 4
 274.959960938 -47.830078125 300.290039062 -57.787109375 328 -60 c 1028
EndSplineSet
Fore
SplineSet
954 638.479492188 m 17
 1081.72315516 638.479763697 l 1
 1190 638.479763697 1215.49803743 655.635347935 1307.34668455 730.65569978 c 0
 1391.98507043 800.303747541 1517.45547835 882.618827403 1653.08086466 882.618827403 c 0
 1811.62298046 882.618827403 1925.76429991 767.77722927 1925.76429991 605.695889957 c 0
 1925.76429991 341.86998063 1673.05001064 174.605260825 1455.30599222 117.159531134 c 1
 1504.69400778 218.840468866 l 1
 1644.86876452 255.82169684 1769.60642521 361.606756501 1769.60642521 536.404575856 c 0
 1769.60642521 668.151402494 1674.55456724 773.679101268 1552.51357044 773.679101268 c 0
 1490 773.679101268 1450.52772443 745.531245035 1396.42039084 701.154014763 c 0
 1293.98607367 617.456536842 1210.41316392 545.331039734 1055 532.049021279 c 2
 954 531.215820312 l 1
 954 638.479492188 l 17
343.271309494 1257.62791551 m 1
 376.728690506 1190.37208449 l 1
 325.233257943 1161.40590367 249.902548829 1112 249.902548829 1054.14517655 c 0
 249.902548829 957.034856166 311.994674054 921.249631311 387.523816513 921.249631311 c 0
 431.773575983 921.249631311 480.635402319 933.532405605 524.325271231 952.962158068 c 0
 611.217656265 991.247421634 690.981589735 1014.48221974 752.785847792 1014.48221974 c 0
 873.501661342 1014.48221974 950.698949301 944.42352752 992.613705792 861.444235847 c 0
 1021.48248244 801.732288196 1038.32910156 708 1038.32910156 598.479492188 c 0
 1038.32910156 425.004900608 980.061081157 290.242153642 832.088901855 204.810376089 c 0
 759.300679177 162.786076132 703.778398167 146.669403328 622.389997218 146.669403328 c 0
 557.850685837 146.669403328 395.000158978 181.114547636 348.467203895 181.114547636 c 0
 295.006494124 181.114547636 270.390625 123.950195312 270.390625 90.1787109375 c 0
 270.390625 32.5859375 331.99394628 -1.67013179484 382.508353143 -5.70416337066 c 1
 273.491646851 -114.295836629 l 1
 190.106524184 -107.636781546 124.833358862 -50.7683021724 124.833358862 39.8318948522 c 0
 124.833358862 57.521138115 127.689260357 76.9329234392 133.80089535 95.4915967961 c 0
 152.723793067 149.132316137 196.42348178 198.644766347 253.999995785 234.302083397 c 0
 309.38658429 268.603172665 377.614461759 290.08304636 448.980698627 290.08304636 c 0
 504.541374796 290.08304636 658.77478862 255.89013122 725.66576786 255.89013122 c 0
 864.050786992 255.89013122 882.374957172 408.586121781 882.374957172 550.564749516 c 0
 882.374957172 702.301023753 845.978007062 809.515320364 759.944982341 870.989501592 c 0
 722.205557785 896.182075339 690.676539444 907.208695732 657.330344639 907.208695732 c 0
 619.195717897 907.208695732 578.684559863 892.787912207 523.790701925 868.641576881 c 0
 436.820216897 829.663404225 357.006691309 805.515838439 295.489156159 805.515838439 c 0
 185.83765758 805.515838439 93.7328344078 874.91358935 93.7328344078 985.459996367 c 0
 93.7328344078 1100.12961117 193.362995959 1172.56887545 279.271309494 1221.62791551 c 2
 343.271309494 1257.62791551 l 1
EndSplineSet
EndChar

StartChar: uni1706
Encoding: 5894 5894 10
GlifName: uni1706
Width: 1950
VWidth: 0
GlyphClass: 2
Flags: HMW
AnchorPoint: "Anchor1" 1078 0 basechar 0
AnchorPoint: "Anchor0" 976 1386 basechar 0
AnchorPoint: "Anchor-1" 1078 0 basechar 0
AnchorPoint: "Anchor-0" 976 1386 basechar 0
LayerCount: 2
Back
SplineSet
256 852 m 4
 227.482421875 834.616210938 208.75 810.37890625 199.801757812 779.2890625 c 4
 192.368164062 747.291992188 196.43359375 716.862304688 212 688 c 4
 227.674804688 662.2265625 249.379882812 642.5546875 277.115234375 628.984375 c 4
 303.700195312 617.217773438 332.662109375 611.556640625 364 612 c 4
 411.920898438 613.73828125 462.65234375 628.83203125 516.193359375 657.279296875 c 4
 555.842773438 678.885742188 599.77734375 709.125976562 648 748 c 4
 671.485351562 766.985351562 706.276367188 796.088867188 752.37109375 835.30859375 c 4
 875.372070312 939.580078125 971.249023438 1011.81054688 1040 1052 c 4
 1170.13867188 1126.984375 1303.06933594 1172.20605469 1438.79003906 1187.66601562 c 4
 1583.25976562 1203.15722656 1722.33007812 1185.93457031 1856 1136 c 5
 1732.4765625 1182.62304688 1604.4765625 1199.95605469 1472 1188 c 4
 1325.75 1173.84570312 1181.75 1125.17871094 1040 1042 c 4
 813.055664062 908.307617188 638.411132812 724.7421875 516.064453125 491.302734375 c 4
 501.45703125 463.213867188 488.102539062 435.446289062 476 408 c 4
 418.793945312 276.56640625 384.126953125 140.56640625 372 0 c 1028
EndSplineSet
Fore
SplineSet
406.798797253 676.986143898 m 0
 449.516955121 676.986143898 490.816769988 691.095208056 531.545386454 712.65185923 c 0
 606.56188285 753.680440321 659.507643043 802.977647979 739.94497275 871.417799635 c 0
 867.538545855 979.582560894 968.937807765 1057.29288302 1052.06333758 1105.53735954 c 0
 1196.5096929 1188.76565377 1339.53781578 1236.33319944 1481.12279989 1252.46116129 c 0
 1516.78324003 1256.28496171 1552.0116647 1258.18799128 1586.82371895 1258.18799128 c 0
 1707.15254217 1258.18799128 1818.03837437 1234.55219023 1910.53998252 1199.63811318 c 1
 1801.5173736 1072.34034947 l 1
 1715.36489288 1104.52400976 1617.89733816 1126.66394766 1506.41309869 1126.66394766 c 0
 1480.80293785 1126.66394766 1455.08036891 1125.4934906 1429.25044665 1123.16233136 c 0
 1175.41120286 1098.59538424 934.828481502 951.163565603 786.728191166 803.063275268 c 0
 613.085536368 629.420624021 494.208984375 359.997070312 466.875 43.1591796875 c 1
 307.124800003 -43.1595233924 l 1
 319.608793825 101.545426739 355.193309227 244.22103715 416.787535975 384.813722876 c 0
 456.283435465 474.383016455 503.127653874 557.279029712 556.944259646 635.61562542 c 1
 491.118715689 592.559288778 391.098290575 546.965555289 314.391931554 546.965555289 c 0
 235.725164901 546.965555289 180.313428837 580.361957852 149.702690753 630.693937134 c 0
 137.659742897 651.709069864 131.108764542 675.992203641 131.108764542 702.210144337 c 0
 131.108764542 715.673945612 133.063672891 731.452706346 136.805051965 745.810804525 c 0
 145.149430729 774.802580398 164.541033158 815.626223135 205.913007613 856.998197591 c 0
 225.960377849 877.045567826 246.70476548 892.566842132 265.101930372 903.781414156 c 1
 265.249699754 819.60958312 l 1
 262.575216834 813.964218085 261.285211357 803.695674028 261.285211357 795.313961833 c 0
 261.285211357 720.556571223 331.44317441 676.986143898 406.798797253 676.986143898 c 0
EndSplineSet
EndChar

StartChar: uni1707
Encoding: 5895 5895 11
GlifName: uni1707
Width: 2096
VWidth: 0
GlyphClass: 2
Flags: HMW
AnchorPoint: "Anchor1" 1104 0 basechar 0
AnchorPoint: "Anchor0" 1054 1386 basechar 0
AnchorPoint: "Anchor-1" 1104 0 basechar 0
AnchorPoint: "Anchor-0" 1054 1386 basechar 0
LayerCount: 2
Back
SplineSet
486 918 m 5
 454 886 l 6
 386.801757812 818.205078125 340.543945312 763.393554688 315.225585938 721.568359375 c 4
 275.190429688 652.998046875 257.448242188 584.475585938 262 516 c 4
 269.700195312 427.359375 309.1328125 355.033203125 380.296875 299.021484375 c 4
 444.841796875 250.083007812 524.076171875 223.7421875 618 220 c 4
 707.6875 216.799804688 833.54296875 241.62890625 995.567382812 294.486328125 c 6
 997.569335938 295.139648438 l 5
 999.5703125 295.79296875 l 5
 1001.57128906 296.446289062 l 5
 1003.57226562 297.100585938 l 5
 1005.57324219 297.75390625 l 5
 1007.57324219 298.408203125 l 5
 1009.57421875 299.0625 l 5
 1013.18945312 300.245117188 l 6
 1025.34667969 304.217773438 1034.12597656 307.083984375 1039.52929688 308.842773438 c 4
 1214.14160156 365.2109375 1354.96484375 394.262695312 1462 396 c 4
 1647.30371094 398.5390625 1807.98339844 343.985351562 1944.03808594 232.338867188 c 4
 1948.04101562 229.014648438 1951.36132812 226.235351562 1954 224 c 1028
142 1080 m 4
 271.310546875 969.6875 426.37109375 914.9765625 607.181640625 915.868164062 c 4
 611.455078125 915.907226562 615.061523438 915.951171875 618 916 c 4
 720.006835938 918.362304688 860.723632812 947.389648438 1040.14941406 1003.08300781 c 4
 1222.76367188 1059.40722656 1363.37988281 1089.04589844 1462 1092 c 4
 1642.984375 1096.96582031 1799.81640625 1045.70898438 1932.49707031 938.229492188 c 4
 1940.44628906 931.693359375 1947.61425781 925.6171875 1954 920 c 1028
EndSplineSet
Fore
SplineSet
1895.05981283 162.824368574 m 5
 1765.40922025 272.657901433 1608.90431609 329.650593931 1431.93533598 329.650593931 c 4
 1320.75692058 329.650593931 1191.29479905 302.56059129 1014.40726326 245.457939469 c 4
 999.834396531 240.698181466 985.262750976 235.93660492 970.688655307 231.180466851 c 4
 813.798915749 179.998136092 687.316269438 153.287969117 591.522775295 153.287969117 c 4
 375.504424093 153.287969117 194.878092661 279.845114972 194.878092661 494.337451875 c 4
 194.878092661 675.368713933 311.613505066 799.676773583 425.715728753 914.284271247 c 6
 457.715728753 946.284271247 l 5
 514.284271247 889.715728753 l 5
 482.578662573 858.010120078 l 6
 421.327494049 796.188733069 383.466778086 749.302891969 368.595560211 725.094007949 c 4
 343.119554789 681.136376661 327.727812898 633.030626919 327.727812898 579.609291031 c 4
 327.727812898 397.431726893 491.163988314 286.16387447 675.908352673 286.16387447 c 4
 759.473552631 286.16387447 907.664866651 320.987882687 1051 367.771870271 c 4
 1234.47176575 427.656286675 1390.49845076 462.518784166 1516.71442871 462.518784166 c 4
 1709.9332561 462.518784166 1876.59374008 400.681559155 2012.94018717 285.175631426 c 5
 1895.05981283 162.824368574 l 5
1894.7895132 859.057708241 m 5
 1772.35563061 966.75608603 1616.38467734 1025.89513068 1443.462449 1025.89513068 c 4
 1329.02004143 1025.89513068 1207.33864622 999.006184234 1014.04594636 939.388384179 c 4
 822.450322559 879.917533021 683.902530258 849.424466474 560.606265147 849.424466474 c 4
 373.595464775 849.424466474 214.605733864 906.604761552 83.0094610693 1018.86717319 c 5
 200.990538931 1141.13282681 l 5
 325.941828819 1034.53913048 474.177156141 982.290416045 645.06891091 982.290416045 c 4
 754.105527314 982.290416045 882.051614112 1009.60197182 1066.25288176 1066.77763144 c 4
 1266.22919039 1128.45687537 1399.1735869 1158.76277338 1528.21088659 1158.76277338 c 4
 1717.84569888 1158.76277338 1883.79019958 1094.78622689 2013.2104868 980.942291759 c 5
 1894.7895132 859.057708241 l 5
EndSplineSet
EndChar

StartChar: uni1708
Encoding: 5896 5896 12
GlifName: uni1708
Width: 1700
VWidth: 0
GlyphClass: 2
Flags: HMW
AnchorPoint: "Anchor1" 874 -176 basechar 0
AnchorPoint: "Anchor0" 820 1386 basechar 0
AnchorPoint: "Anchor-0" 820 1386 basechar 0
AnchorPoint: "Anchor-1" 874 -176 basechar 0
LayerCount: 2
Back
SplineSet
728 -100 m 4
 782.91394096 -1.03874576889 859.051232191 82.1858388205 950.44921875 144.430664062 c 4
 971.552977712 160.080471401 984.329566725 169.224361388 987.5625 193.04296875 c 4
 987.464610542 220.693244443 970.882276835 230.958887663 952 240 c 6
 804 310 l 6
 782.734906262 320.650907336 764.419208044 337.212178519 764.419208044 355.087862487 c 4
 764.419208044 365.916790898 771.140753013 377.228086103 788 388 c 6
 972 504 l 6
 984.333006424 512.356992413 992.83360414 518.646880741 994.796875 534.608398438 c 4
 993.273262072 561.88959355 972.863689405 570.017543109 952 580 c 6
 802 652 l 6
 787.949234697 659.304450969 772.234596615 668.40681569 772.234596615 684.226998899 c 4
 772.234596615 697.457859712 781.530842548 705.660775678 790 712 c 6
 912 800 l 6
 942.331357452 822.050575805 953.831310074 825.789211923 964.813476562 850.536132812 c 4
 966.39848801 856.025723645 967.117694246 860.987559155 967.117694246 865.495271149 c 4
 967.117694246 887.82175315 949.47431715 899.007797202 932 908 c 4
 851.585313295 952.530117689 820.159567894 1021.05637745 820 1150 c 6
 820 1198 l 1029
288 0 m 4
 240.930465203 132.975371108 217.57392417 272.189148744 217.57392417 406.737589604 c 4
 217.57392417 614.017358582 273.006494861 810.224785541 382.568359375 955.493164062 c 4
 483.366808648 1086.15682552 637.049303588 1198.84396802 849.642064605 1198.84396802 c 4
 1047.8730582 1198.84396802 1200.32214016 1098.51631907 1299.76171875 981.43359375 c 4
 1422.3916623 834.450530016 1487.68347373 650.852184197 1487.68347373 413.199841176 c 4
 1487.68347373 273.182051405 1462.45543464 135.449200043 1412 0 c 1028
EndSplineSet
Fore
SplineSet
672.64585738 -106.988769168 m 1
 730.374504746 -2.95508940324 816.120291692 95.6627729646 911.642257153 167.966470499 c 1
 908.083120062 170.57074157 903.350040105 173.185932178 897.454144109 176.008974044 c 0
 844.011854162 201.289994286 697.985056693 238.496150801 697.985056693 312.690167928 c 0
 697.985056693 366.95400917 751.0339976 415.887000568 787.79782022 439.064193089 c 6
 904.505009957 512.64046488 l 1
 856.947086757 535.773620201 705.800445264 576.621600438 705.800445264 641.82930434 c 0
 705.800445264 692.48214204 753.840305748 737.021601269 782.785701131 758.292951656 c 2
 890.682551312 836.120187852 l 1
 867.263609644 852.928271545 841.849845052 864.974930864 822.470630513 884.354145402 c 0
 773.358060207 933.466715709 753.693505727 1004.44517488 753.565848649 1107.60230544 c 2
 753.565848649 1155.60230544 l 1
 886.434151351 1240.39769456 l 1
 886.434151351 1095.35016891 901.663848503 1019.17556535 987.474894118 971.526273081 c 0
 1009.82189036 960.008200282 1033.5518456 944.929674797 1033.5518456 907.892965708 c 0
 1033.5518456 831.587091417 964.729270199 786.793241784 919.691397124 754.051184791 c 2
 862.778906957 712.999552539 l 1
 1010.00611285 642.345442824 l 2
 1034.32375303 630.815687239 1059.07894739 616.598024091 1061.17406875 579.083630822 c 1
 1058.87078561 519.54909908 1009.08649243 477.075291869 971.471389387 452.475091229 c 2
 852.384146907 377.398351404 l 1
 854.447182758 376.163400588 856.588864336 374.983853498 858.774524465 373.882871901 c 2
 1006.54585589 303.991025956 l 2
 1031.2541024 292.160353507 1054.99881187 275.081920701 1053.99640641 235.579195011 c 0
 1052.38477537 172.068149256 989.664803816 120.930560805 954.25284657 95.7464116504 c 0
 881.288658935 46.0555674732 828.348400444 -11.9263895401 783.35414262 -93.0112308323 c 1
 672.64585738 -106.988769168 l 1
151.139772819 364.339895045 m 0
 151.139772819 662.348727643 257.721413148 895.876848707 416.097517136 1054.2529527 c 0
 528.951595395 1167.10703095 680.872268597 1265.27811937 892.039759163 1265.27811937 c 0
 1102.18902786 1265.27811937 1257.85929325 1161.73942504 1361.03029641 1040.26322417 c 0
 1486.577363 889.783724984 1554.11762508 700.617066602 1554.11762508 455.597535734 c 0
 1554.11762508 310.914219791 1528.13278409 166.492121758 1474.15386612 21.5840199588 c 1
 1349.84613388 -21.5840199588 l 1
 1396.77808518 104.406278329 1421.24932238 235.44988302 1421.24932238 370.802146617 c 0
 1421.24932238 601.087301792 1358.2059616 779.117335048 1238.49314109 922.603963329 c 0
 1141.65049822 1036.62898954 993.072734681 1132.40981667 807.244370046 1132.40981667 c 0
 621.550920053 1132.40981667 505.319918082 1046.93926973 426.310766799 944.835837031 c 0
 340.812963473 831.051615561 284.008075521 647.884344168 284.008075521 449.135284162 c 0
 284.008075521 319.069665428 306.700754208 182.837026309 352.860331958 52.432359938 c 1
 223.139668042 -52.432359938 l 1
 175.160176197 83.1137159071 151.139772819 225.30863206 151.139772819 364.339895045 c 0
EndSplineSet
EndChar

StartChar: uni1709
Encoding: 5897 5897 13
GlifName: uni1709
Width: 2140
GlyphClass: 2
Flags: HMW
AnchorPoint: "Anchor1" 1180 0 basechar 0
AnchorPoint: "Anchor0" 976 1386 basechar 0
AnchorPoint: "Anchor-1" 1180 0 basechar 0
AnchorPoint: "Anchor-0" 976 1386 basechar 0
LayerCount: 2
Back
SplineSet
1410 808 m 4
 1476.765625 728.678710938 1535.43261719 644.678710938 1586 556 c 4
 1607.79101562 517.416992188 1627.79101562 478.75 1646 440 c 1028
114 812 m 5
 358 812 l 6
 363.091796875 812 370.73046875 812.056640625 380.915039062 812.170898438 c 4
 398.44921875 812.3671875 411.598632812 812.369140625 420.36328125 812.176757812 c 4
 446.102539062 811.091796875 466.415039062 807.393554688 481.299804688 801.08203125 c 4
 491.584960938 795.846679688 500.114257812 790.010742188 506.889648438 783.576171875 c 4
 514.3046875 775.18359375 519.887695312 766.504882812 523.637695312 757.541015625 c 4
 526.965820312 747.49609375 528.76171875 737.315429688 529.026367188 727 c 4
 528.862304688 718.517578125 527.853515625 708.184570312 526 696 c 6
 502 540 l 6
 487.991210938 447.999023438 480.236328125 385.952148438 478.734375 353.860351562 c 4
 476.215820312 280.2734375 487.971679688 219.653320312 514 172 c 4
 533.487304688 138.819335938 557.97265625 112.514648438 587.458984375 93.0869140625 c 4
 619.091796875 73.6630859375 653.271484375 62.6337890625 690 60 c 4
 743.540039062 57.45703125 798.20703125 72.1240234375 854 104 c 4
 929.865234375 148.669921875 1013.01660156 228.594726562 1103.45410156 343.774414062 c 4
 1161.015625 417.500976562 1225.86425781 513.576171875 1298 632 c 6
 1522 1000 l 6
 1566.64257812 1072.03027344 1608.45605469 1122.20214844 1647.4375 1150.515625 c 4
 1704.48925781 1191.12011719 1766.67675781 1207.61523438 1834 1200 c 4
 1881.04589844 1193.95703125 1923.31152344 1177.37988281 1960.796875 1150.26855469 c 4
 1998.57910156 1121.3984375 2026.98046875 1085.97558594 2046 1044 c 1028
EndSplineSet
Fore
SplineSet
1581.98593551 385.50301256 m 1
 1518.54453498 520.510776831 1442.06959144 638.279133266 1348.78503923 749.106388018 c 1
 1471.21496077 866.893611982 l 1
 1566.64507082 753.517314761 1645.01277333 632.824308698 1710.01406449 494.49698744 c 1
 1581.98593551 385.50301256 l 1
462.577595606 684.464083912 m 0
 460.55027908 737.064798345 415.084649674 745.829635636 355.635925868 745.829635636 c 4
 345.007925043 745.829635636 323.837399644 745.565848649 315.602305441 745.565848649 c 2
 71.6023054414 745.565848649 l 1
 156.397694559 878.434151351 l 1
 400.397694559 878.434151351 l 2
 410.234326689 878.434151351 435.473659291 878.755484816 446.544987063 878.755484816 c 0
 533.738228679 878.755484816 593.33343058 852.802425796 595.448019232 770.380286002 c 0
 595.448019232 758.185831347 594.08703214 745.963780901 591.867882101 731.37561703 c 2
 567.880543132 575.458337853 l 2
 551.88894318 470.435497898 544.834312209 425.599894497 544.834312209 377.036883142 c 0
 544.834312209 238.975557924 610.835817931 126.145079693 744.558931759 126.145079693 c 0
 786.214841169 126.145079693 823.687971074 138.186860882 858.844502773 158.141916799 c 0
 931.579752424 201.246965768 1000.08903915 278.539138623 1060.99180131 356.083340261 c 0
 1112.7809839 422.438084592 1175.14629081 514.40426805 1245.31890848 629.6052733 c 2
 1469.89916536 998.558552463 l 2
 1518.87404241 1077.57893914 1569.26885712 1145.78931324 1641.03130894 1197.38759328 c 0
 1713.35835442 1248.86371016 1781.32179626 1268.25609539 1844.59646292 1268.25609539 c 0
 1976.99382164 1268.25609539 2067.50906932 1192.30938271 2110.1399575 1098.22417699 c 1
 1981.8600425 989.775823034 l 1
 1946.57280049 1067.65380222 1868.42451744 1135.3531191 1760.37074556 1135.3531191 c 0
 1705.62705327 1135.3531191 1666.89520524 1117.89082225 1642.26983648 1093.2654535 c 0
 1627.66254619 1078.65816321 1602.61901862 1047.40235078 1574.38123431 1001.90210414 c 2
 1350.68109152 634.3947267 l 2
 1235.48054585 445.272258312 1150.89562921 318.231503661 1016.00833188 183.344213381 c 0
 927.894391749 95.23027785 805.170927112 -6.70892819841 659.218312918 -6.70892819841 c 0
 558.867176215 -6.70892819841 488.670325213 49.0983055628 450.564708856 116.361891993 c 0
 424.73867311 163.644864504 411.96787583 222.519315322 411.96787583 292.338221446 c 0
 411.96787583 372.705502332 444.585202669 559.569159378 460.132117899 660.62438297 c 0
 461.659196857 670.663017806 462.408188693 678.637285089 462.577595606 684.464083912 c 0
EndSplineSet
EndChar

StartChar: uni170A
Encoding: 5898 5898 14
GlifName: uni170A_
Width: 1694
GlyphClass: 2
Flags: HMW
AnchorPoint: "Anchor1" 1032 -158 basechar 0
AnchorPoint: "Anchor0" 968 1420 basechar 0
AnchorPoint: "Anchor-1" 1032 -158 basechar 0
AnchorPoint: "Anchor-0" 968 1386 basechar 0
LayerCount: 2
Back
SplineSet
204 522 m 0
 248.837890625 708.454101562 337.50390625 869.120117188 470 1004 c 0
 536.588867188 1070.60253906 608.5234375 1120.87109375 685.803710938 1154.8046875 c 128
 770.666992188 1190.98730469 856.732421875 1206.71875 944 1202 c 0
 1030.40039062 1196.34960938 1110.63964844 1171.95898438 1184.71582031 1128.828125 c 128
 1257.46289062 1085.17480469 1318.55761719 1027.56542969 1368 956 c 0
 1421.38378906 876.94921875 1457.81347656 787.215820312 1477.2890625 686.797851562 c 128
 1496.19140625 585.202148438 1496.42773438 488.26953125 1478 396 c 0
 1465.44433594 336.4140625 1446.03515625 283.91796875 1419.77441406 238.509765625 c 128
 1388.68261719 186.958007812 1350.7578125 146.12109375 1306 116 c 0
 1234.37011719 69.8251953125 1157.70410156 53.8251953125 1076 68 c 0
 985.548828125 84.3525390625 915.643554688 131.793945312 866.28515625 210.323242188 c 0
 862.3203125 216.817382812 858.892578125 222.709960938 856 228 c 1
 790.438476562 169.70703125 721.104492188 125.70703125 648 96 c 0
 601.435546875 77.7216796875 557.169921875 66.7412109375 515.202148438 63.0595703125 c 128
 466.323242188 59.607421875 421.255859375 65.25390625 380 80 c 0
 337.951171875 96.1474609375 301.92578125 120.017578125 271.921875 151.609375 c 128
 242.630859375 183.943359375 220.750976562 221.290039062 206.283203125 263.6484375 c 0
 182.056640625 338.493164062 181.295898438 424.610351562 204 522 c 0
EndSplineSet
Fore
SplineSet
918.65903514 284.679085258 m 1
 966.561269557 197.073952294 1051.58798653 128.051621322 1178.77298108 128.051621322 c 0
 1332.21585257 128.051621322 1386.05789921 226.253565026 1413.89825375 358.063166717 c 0
 1422.28632341 400.159611579 1426.59020598 444.174874522 1426.59020598 489.848703765 c 0
 1426.59020598 762.300923064 1302.63212206 961.384846084 1127.4887601 1066.48308916 c 0
 1048.14394411 1112.68161717 967.262497593 1137.79716104 867.944627492 1137.79716104 c 0
 705.29332123 1137.79716104 581.86394711 1066.16079923 495.412139901 979.913964225 c 0
 390.832193939 873.223819426 310.618740108 736.467326115 267.743764633 558.320282915 c 0
 257.64169829 514.930506688 252.523758473 473.73531526 252.523758473 434.747164248 c 0
 252.523758473 285.763773028 325.079888601 185.759394867 434.43909146 143.677252044 c 0
 465.719037684 132.52418208 498.95323229 127.087835831 533.999136798 127.087835831 c 0
 587.043934199 127.087835831 625.983802187 137.6095459 674.237538623 156.497245667 c 0
 736.980964964 182.061598158 790.011017724 216.558201214 840.041118419 261.041657457 c 1
 918.65903514 284.679085258 l 1
1086.69519325 -2.0399121195 m 0
 955.164343641 -2.0399121195 865.805224709 60.1628329327 809.84601853 143.973164133 c 1
 709.76384716 68.3865336937 594.134251627 -2.93337215228 441.592721938 -2.93337215228 c 0
 337.633075499 -2.93337215228 263.803502915 36.7671988784 211.318532739 92.0298204516 c 0
 156.959890395 152.035643216 122.524427711 232.645641786 122.524427711 342.388800308 c 0
 122.524427711 387.058259781 128.293373015 435.160035982 140.303457189 485.876004086 c 0
 187.026636723 680.169900181 283.879479657 864.485568858 443.933529514 1027.41921375 c 0
 527.051035915 1111.28903921 620.043806473 1175.52669299 710.084318651 1214.49174539 c 0
 795.84224829 1251.05580812 878.483061005 1267.83625796 959.738252296 1267.83625796 c 0
 1178.74838534 1267.83625796 1335.9553797 1149.90559403 1429.90388958 1013.91972332 c 4
 1506.81830084 900.024767449 1556.7009227 760.589290577 1556.7009227 582.265992591 c 0
 1556.7009227 338.740152724 1452.17543951 166.418387525 1300.06258341 66.2032094547 c 0
 1234.03574262 23.6402963501 1176.247621 -2.0399121195 1086.69519325 -2.0399121195 c 0
EndSplineSet
EndChar

StartChar: uni170B
Encoding: 5899 5899 15
GlifName: uni170B_
Width: 2060
GlyphClass: 2
Flags: HMW
AnchorPoint: "Anchor1" 1154 0 basechar 0
AnchorPoint: "Anchor0" 976 1386 basechar 0
AnchorPoint: "Anchor-1" 1154 0 basechar 0
AnchorPoint: "Anchor-0" 976 1386 basechar 0
LayerCount: 2
Back
SplineSet
476 684 m 0
 592.123046875 730.724609375 712.123046875 752.05859375 836 748 c 0
 969.444335938 742.70703125 1094.77734375 709.374023438 1212 648 c 1024
124 928 m 1
 328 928 l 2
 367.709960938 927.940429688 390.036132812 927.806640625 394.978515625 927.59765625 c 0
 422.15625 925.743164062 443.721679688 920.740234375 459.67578125 912.587890625 c 0
 470.236328125 906.1875 478.845703125 899.192382812 485.50390625 891.6015625 c 0
 492.576171875 882.017578125 497.610351562 872.149414062 500.606445312 861.997070312 c 0
 503.025390625 850.99609375 503.75390625 839.91796875 502.7890625 828.76171875 c 0
 501.672851562 820.069335938 499.409179688 809.1484375 496 796 c 0
 466.375976562 681.108398438 447.786132812 575.947265625 440.229492188 480.517578125 c 0
 435.790039062 420.071289062 436.235351562 366.696289062 441.564453125 320.392578125 c 0
 449.252929688 260.118164062 464.731445312 209.3203125 488 168 c 0
 508.529296875 133.7578125 532.840820312 107.013671875 560.936523438 87.767578125 c 0
 593.327148438 67.1552734375 627.681640625 56.5654296875 664 56 c 0
 701.341796875 56.5703125 738.015625 67.095703125 774.0234375 87.5771484375 c 0
 802.580078125 104.627929688 832.572265625 128.768554688 864 160 c 0
 942.994140625 239.482421875 1018.99414062 336.81640625 1092 452 c 2
 1436 996 l 2
 1481.79980469 1067.20117188 1523.95507812 1116.84277344 1562.46582031 1144.92285156 c 0
 1620.23339844 1185.08398438 1682.078125 1202.109375 1748 1196 c 0
 1795.35546875 1190.46777344 1837.81054688 1174.14160156 1875.36523438 1147.02246094 c 0
 1913.28710938 1118.05859375 1941.49902344 1082.38476562 1960 1040 c 1024
EndSplineSet
Fore
SplineSet
1156.68453976 584.3921536 m 1
 1034.21795285 648.511730959 909.326172188 682.058281106 763.910010891 682.058281106 c 0
 655.383736681 682.058281106 552.703048523 661.360909767 456.647952025 622.71107252 c 1
 495.352047975 745.28892748 l 1
 612.974678036 792.616926453 730.543933134 814.914816302 848.837077049 814.914816302 c 0
 1005.93335911 814.914816302 1138.88050684 778.852269045 1267.31546024 711.6078464 c 1
 1156.68453976 584.3921536 l 1
1895.73641291 986.053790142 m 1
 1862.14767487 1063.00382488 1785.18298397 1130.77627163 1679.72288181 1130.77627163 c 0
 1624.96303052 1130.77627163 1582.64226099 1113.08508157 1556.19366428 1086.63648486 c 0
 1540.90037159 1071.34319217 1515.72730385 1040.30684538 1487.11502002 995.880164688 c 2
 1143.42093513 452.363937419 l 2
 1065.77641682 329.861788559 982.806705613 222.234755933 891.875950035 131.308684343 c 0
 825.726010994 65.5718997913 731.897583856 -8.754262583 622.210986523 -10.4294802419 c 1
 621.000175893 -10.4294802419 l 2
 577.857009158 -9.75779716745 538.184856904 2.53328206556 503.571794195 25.3905126739 c 0
 412.073545079 88.0685625004 370.767322914 204.565046521 370.767322914 360.083341745 c 0
 370.767322914 508.357308441 392.843924712 617.17922409 431.372217067 766.604477664 c 0
 434.825568584 779.923278659 436.763119457 785.937928812 436.763119457 795.823610331 c 0
 436.763119457 859.68855741 377.068496841 861.569886519 304.277219101 861.569886519 c 0
 299.720176354 861.569886519 295.111804004 861.562513043 290.463535525 861.562513043 c 0
 288.828291373 861.562513043 287.188109647 861.56342559 285.543488146 861.565892744 c 2
 81.6023054414 861.565892744 l 1
 166.397694559 994.434151351 l 1
 370.456511854 994.434151351 l 2
 453.787889173 994.309143015 510.056156982 996 547.482987677 949.525971913 c 0
 561.952081486 931.559260342 569.639802989 911.389168398 569.639802989 880.735707911 c 0
 569.639802989 859.318622992 565.999990694 846.114916572 560.627782933 825.395522336 c 0
 524.246830292 684.298350844 503.639372542 583.433881647 503.639372542 444.898922012 c 0
 503.639372542 308.214085384 538.753156443 204.84258971 618.025996842 150.3335567 c 0
 647.39336869 131.711561551 677.343205609 123.003770974 706.402105067 122.439936073 c 0
 771.737589803 123.66997446 796.564782841 149.456552889 835.73110466 188.301210028 c 0
 903.202381564 256.263370272 972.172147449 343.708361257 1040.57906487 451.636062581 c 2
 1385.17164311 996.573163059 l 2
 1435.54286128 1074.88113372 1485.6504638 1141.64110978 1557.45540048 1192.77668629 c 0
 1630.93128191 1243.85853408 1700.23132829 1263.64398653 1764.47550468 1263.64398653 c 0
 1894.1235202 1263.64398653 1983.5163234 1187.2960509 2024.26358709 1093.94620986 c 1
 1895.73641291 986.053790142 l 1
EndSplineSet
EndChar

StartChar: uni170C
Encoding: 5900 5900 16
GlifName: uni170C_
Width: 2124
GlyphClass: 2
Flags: HMW
AnchorPoint: "Anchor1" 1166 0 basechar 0
AnchorPoint: "Anchor0" 1040 1386 basechar 0
AnchorPoint: "Anchor-1" 1166 0 basechar 0
AnchorPoint: "Anchor-0" 1040 1386 basechar 0
LayerCount: 2
Back
SplineSet
114 812 m 5
 358 812 l 6
 363.091796875 812 370.73046875 812.056640625 380.915039062 812.170898438 c 4
 398.44921875 812.3671875 411.598632812 812.369140625 420.36328125 812.176757812 c 4
 446.102539062 811.091796875 466.415039062 807.393554688 481.299804688 801.08203125 c 4
 491.584960938 795.846679688 500.114257812 790.010742188 506.889648438 783.576171875 c 4
 514.3046875 775.18359375 519.887695312 766.504882812 523.637695312 757.541015625 c 4
 526.965820312 747.49609375 528.76171875 737.315429688 529.026367188 727 c 4
 528.862304688 718.517578125 527.853515625 708.184570312 526 696 c 6
 502 540 l 6
 487.991210938 447.999023438 480.236328125 385.952148438 478.734375 353.860351562 c 4
 476.215820312 280.2734375 487.971679688 219.653320312 514 172 c 4
 533.487304688 138.819335938 557.97265625 112.514648438 587.458984375 93.0869140625 c 4
 619.091796875 73.6630859375 653.271484375 62.6337890625 690 60 c 4
 743.540039062 57.45703125 798.20703125 72.1240234375 854 104 c 4
 929.865234375 148.669921875 1013.01660156 228.594726562 1103.45410156 343.774414062 c 4
 1161.015625 417.500976562 1225.86425781 513.576171875 1298 632 c 6
 1522 1000 l 6
 1566.63085938 1072.01855469 1608.44433594 1122.24804688 1647.43847656 1150.69042969 c 4
 1705.90234375 1191.31152344 1768.08984375 1207.74804688 1834 1200 c 4
 1897.6328125 1190.828125 1948.04492188 1162.75683594 1985.23828125 1115.78417969 c 4
 2023.49121094 1064.50488281 2035.74511719 1008.57714844 2022 948 c 4
 2013.79394531 916.548828125 1999.4921875 888.4296875 1979.09570312 863.642578125 c 4
 1957.91308594 839.4921875 1932.9765625 820.060546875 1904.28710938 805.349609375 c 4
 1848.34863281 778.263671875 1786.25292969 769.814453125 1718 780 c 4
 1681.43554688 786.06640625 1646.76855469 796.732421875 1614 812 c 1028
EndSplineSet
Fore
SplineSet
462.577595606 684.464083912 m 4
 460.55027908 737.064798345 415.084649674 745.829635636 355.635925868 745.829635636 c 4
 345.007925043 745.829635636 323.837399644 745.565848649 315.602305441 745.565848649 c 6
 71.6023054414 745.565848649 l 5
 156.397694559 878.434151351 l 5
 400.397694559 878.434151351 l 6
 410.234326689 878.434151351 435.473659291 878.755484816 446.544987063 878.755484816 c 4
 533.738228679 878.755484816 593.33343058 852.802425796 595.448019232 770.380286002 c 5
 595.448019232 768.623792442 l 6
 595.233929921 757.554865336 593.966559256 745.171820851 591.867882101 731.37561703 c 6
 567.880543132 575.458337853 l 6
 551.88894318 470.435497898 544.834312209 425.599894497 544.834312209 377.036883142 c 4
 544.834312209 238.975557924 610.835817931 126.145079693 744.558931759 126.145079693 c 4
 786.214841169 126.145079693 823.687971074 138.186860882 858.844502773 158.141916799 c 4
 931.579752424 201.246965768 1000.08903915 278.539138623 1060.99180131 356.083340261 c 4
 1112.7809839 422.438084592 1175.14629081 514.40426805 1245.31890848 629.6052733 c 6
 1469.89591641 998.553214902 l 6
 1519.18752735 1078.09258804 1569.93565027 1146.92442759 1642.46306205 1198.56859357 c 4
 1714.65810722 1248.73020345 1782.43645727 1268.2932048 1845.00571115 1268.2932048 c 4
 1982.83774413 1268.2932048 2093.96347139 1173.02887983 2093.96347139 1037.87772519 c 4
 2093.96347139 1018.78492552 2091.58104015 997.702565027 2086.57780387 977.20283563 c 4
 2073.91318993 928.66343823 2038.65834379 865.8570253 1995.90499989 823.103681393 c 4
 1930.36377025 757.562451757 1849.82298151 709.3629933 1730.19502798 709.3629933 c 4
 1662.3475424 709.3629933 1609.22688124 724.818382534 1559.56702275 747.955984311 c 5
 1668.43297725 876.044015689 l 5
 1711.75826885 855.85782534 1757.03940597 842.286132805 1814.96248256 842.286132805 c 4
 1900.55924237 842.286132805 1960.9380514 865.225308862 1960.9380514 952.244792454 c 4
 1960.9380514 1055.07967872 1867.69997211 1135.43041581 1760.21850533 1135.43041581 c 4
 1708.81080181 1135.43041581 1667.6458196 1118.73159726 1642.53077099 1093.61654865 c 4
 1627.84122813 1078.92700579 1602.71096333 1047.55565855 1574.3829434 1001.90491193 c 6
 1350.68109152 634.3947267 l 6
 1235.48054585 445.272258312 1150.89562921 318.231503661 1016.00833188 183.344213381 c 4
 927.894391749 95.23027785 805.170927112 -6.70892819841 659.218312918 -6.70892819841 c 4
 558.867176215 -6.70892819841 488.670325213 49.0983055628 450.564708856 116.361891993 c 4
 424.73867311 163.644864504 411.96787583 222.519315322 411.96787583 292.338221446 c 4
 411.96787583 372.705502332 444.585202669 559.569159378 460.132117899 660.62438297 c 4
 461.659196857 670.663017806 462.408188693 678.637285089 462.577595606 684.464083912 c 4
EndSplineSet
EndChar

StartChar: uni170E
Encoding: 5902 5902 17
GlifName: uni170E_
Width: 1826
GlyphClass: 2
Flags: HMW
AnchorPoint: "Anchor1" 1014 -98 basechar 0
AnchorPoint: "Anchor0" 976 1386 basechar 0
AnchorPoint: "Anchor-1" 1014 -98 basechar 0
AnchorPoint: "Anchor-0" 976 1386 basechar 0
LayerCount: 2
Back
SplineSet
100 1064 m 4
 188.059570312 969.827148438 298.986328125 919.309570312 432.782226562 912.447265625 c 0
 437.189453125 912.249023438 440.928710938 912.099609375 444 912 c 0
 561.059570312 909.356445312 703.640625 951.721679688 871.744140625 1039.09667969 c 0
 1021.70214844 1117.1796875 1128.96289062 1166.06152344 1193.52636719 1185.74414062 c 0
 1226.49023438 1195.60253906 1257.98144531 1203.02148438 1288 1208 c 0
 1442.10644531 1233.05273438 1580.91699219 1204.63183594 1704.43066406 1122.73730469 c 0
 1710.33691406 1118.75390625 1715.52734375 1115.17480469 1720 1112 c 1
 1630.82324219 1168.52539062 1533.49023438 1200.52539062 1428 1208 c 0
 1277.48242188 1217.2890625 1142.81542969 1182.62304688 1024 1104 c 0
 969.215820312 1066.49609375 927.610351562 1024.37207031 899.184570312 977.62890625 c 0
 865.697265625 919.654296875 853.96875 862.4453125 864 806 c 0
 876.125976562 741.6796875 911.4609375 694.2578125 970.00390625 663.734375 c 0
 974.642578125 661.421875 978.641601562 659.510742188 982 658 c 0
 993.161132812 653.017578125 999.434570312 650.170898438 1000.81933594 649.461914062 c 0
 1007.72753906 645.083007812 1013.14746094 640.884765625 1017.078125 636.865234375 c 0
 1021.66992188 630.669921875 1024.90917969 624.65625 1026.79589844 618.827148438 c 0
 1028.14257812 611.506835938 1028.30957031 604.677734375 1027.29882812 598.341796875 c 0
 1023.74902344 585.676757812 1016.53417969 574.211914062 1005.65527344 563.946289062 c 0
 998.080078125 557.505859375 986.861328125 549.5234375 972 540 c 2
 916 504 l 2
 901.66015625 494.286132812 891.6953125 486.53125 886.103515625 480.735351562 c 0
 877.1875 469.482421875 872.169921875 458.125 871.053710938 446.662109375 c 0
 871.439453125 433.342773438 875.771484375 421.80078125 884.05078125 412.036132812 c 0
 891.607421875 404.819335938 902.256835938 398.140625 916 392 c 2
 1016 348 l 2
 1026.95996094 342.909179688 1034.85253906 338.83203125 1039.67773438 335.770507812 c 0
 1047.75195312 329.466796875 1053.98828125 323.212890625 1058.38769531 317.008789062 c 0
 1062.99511719 308.54296875 1065.77246094 300.186523438 1066.71875 291.938476562 c 0
 1066.83007812 282.58203125 1065.41796875 273.876953125 1062.48339844 265.82421875 c 0
 1055.64941406 251.274414062 1044.2734375 237.893554688 1028.35449219 225.680664062 c 0
 1022.55761719 221.368164062 1013.58398438 215.296875 1001.43554688 207.465820312 c 0
 993.212890625 202.120117188 987.401367188 198.297851562 984 196 c 0
 950.942382812 172.95703125 920.942382812 147.624023438 894 120 c 0
 863.130859375 87.5263671875 836.46484375 52.859375 814 16 c 1024
EndSplineSet
Fore
SplineSet
160.446285236 1123.75019821 m 1
 246.695121188 1031.51378614 360.214336414 976.892291666 500.704243909 976.892291666 c 0
 607.840631028 976.892291666 735.85857537 1015.87227702 888.56524576 1095.24447382 c 0
 1041.36118528 1174.80519028 1151.66451432 1225.99626978 1226.33945974 1248.54564511 c 0
 1292.33248067 1268.28196703 1361.75910544 1281.82850934 1440.09429635 1281.82850934 c 0
 1565.27301663 1281.82850934 1681.46746352 1242.37318962 1778.20917671 1173.70347138 c 1
 1662.4508476 1049.85363057 l 1
 1563.28341694 1112.7116879 1464.17183274 1144.44313147 1335.08547227 1144.44313147 c 0
 1185.53550224 1144.44313147 1053.90041785 1096.98556302 978.283215622 1021.36836076 c 0
 948.861799595 991.946944824 925.544625847 946.15324525 925.544625847 891.143054299 c 0
 925.544625847 803.884362805 974.566777155 749.552982257 1037.49276918 721.246349611 c 0
 1068.48258875 707.412238195 1092.99883616 694.90008175 1092.99883616 653.084697232 c 0
 1092.99883616 628.777855241 1086.38488274 616.208475105 1075.00643722 596.103050614 c 0
 1045.72046506 544.355480979 991.589601496 506.613292455 942.221010825 474.876341308 c 1
 947.753628034 466.677602841 957.971243971 461.287641921 971.40935683 455.283317779 c 2
 1071.72287396 411.141559924 l 2
 1102.45487491 396.866774129 1131.73670735 379.286410432 1131.73670735 336.85530829 c 0
 1131.73670735 283.39204063 1100.97282884 246.997771217 1067.16405783 213.189000204 c 0
 1044.03678597 190.061728348 1023.37238175 175.640863111 995.754009665 157.833991634 c 0
 939.110425996 121.000220438 900.386327005 81.8802215903 865.787265141 25.1115295805 c 1
 762.212734859 6.88847041946 l 1
 819.784562068 101.349913915 905.983405835 191.000527598 999.472095868 252.1164008 c 1
 992.733145602 270.458424108 979.943514551 275.723548932 960.277126038 284.858440076 c 2
 860.59064317 328.716682221 l 2
 830.196308671 342.297267407 807.218268042 359.447323266 806.056355999 399.567116526 c 1
 808.975393596 478.30654269 900.861285248 540.24799188 957.021612089 576.351059137 c 1
 949.354282428 587.539897849 930.335646604 592.582069871 913.868238995 600.791505917 c 0
 845.886401781 636.236229743 795.517424175 699.492230907 795.517424175 799.165802954 c 0
 795.517424175 853.660254577 818.934021674 926.337836296 857.406695632 984.241414833 c 1
 684.00991712 894.053162553 531.59024034 846.87477081 408.056997633 846.87477081 c 0
 253.284792206 846.87477081 131.216603936 906.223481317 39.553714764 1004.24980179 c 1
 160.446285236 1123.75019821 l 1
EndSplineSet
EndChar

StartChar: uni170F
Encoding: 5903 5903 18
GlifName: uni170F_
Width: 1522
GlyphClass: 2
Flags: HMW
AnchorPoint: "Anchor1" 914 -60 basechar 0
AnchorPoint: "Anchor0" 1074 1484 basechar 0
AnchorPoint: "Anchor-1" 914 -60 basechar 0
AnchorPoint: "Anchor-0" 1074 1484 basechar 0
LayerCount: 2
Back
SplineSet
116 816 m 1
 372 816 l 2
 401.286132812 815.791015625 422.40234375 814.696289062 435.346679688 812.716796875 c 128
 459.142578125 808.095703125 478.440429688 800.012695312 493.241210938 788.46875 c 128
 509.891601562 773.530273438 520.383789062 755.662109375 524.716796875 734.864257812 c 128
 527.153320312 718.413085938 525.581054688 697.458007812 520 672 c 2
 496 564 l 2
 474.251953125 465.208007812 462.0234375 396.981445312 459.315429688 359.319335938 c 128
 454.642578125 278.647460938 469.537109375 212.208007812 504 160 c 0
 543.209960938 103.883789062 597.063476562 70.1728515625 665.559570312 58.8662109375 c 128
 726.977539062 50.15625 790.458007812 61.201171875 856 92 c 0
 931.508789062 128.713867188 1004.59667969 188.309570312 1075.26171875 270.786132812 c 128
 1134.96582031 341.37109375 1187.21191406 420.442382812 1232 508 c 0
 1296.63476562 636.026367188 1335.30175781 762.693359375 1348 888 c 0
 1354.13085938 954.4609375 1351.40429688 1011.68359375 1339.81835938 1059.66601562 c 128
 1324.14160156 1119.57519531 1296.20214844 1169.02050781 1256 1208 c 0
 1223.15722656 1238.3515625 1185.41308594 1260.40625 1142.765625 1274.16503906 c 128
 1101.06054688 1286.73632812 1057.47167969 1291.34863281 1012 1288 c 0
 892.708007812 1278.58300781 790.890625 1225.67480469 706.546875 1129.27441406 c 0
 704.455078125 1126.85058594 702.938476562 1125.09277344 702 1124 c 1024
EndSplineSet
Fore
SplineSet
666.947745397 1137.66249094 m 1
 781.225305096 1269.99979882 932.314340173 1354.05556076 1086.55023357 1354.05556076 c 0
 1260.4281565 1354.05556076 1368.79100144 1252.54223041 1404.16006622 1111.90977952 c 0
 1412.20610594 1078.58761872 1416.19246005 1041.21347267 1416.19246005 999.873765278 c 0
 1416.19246005 977.917185408 1415.15533783 954.694834338 1412.81977605 930.568935313 c 0
 1384.01754419 646.347634149 1221.89167627 363.783475988 1050.1356946 192.027494323 c 0
 981.252786505 123.144586226 906.861297086 68.1385923403 835.052411391 33.8073162287 c 0
 772.150737985 4.24919992277 714.306126819 -9.04125869337 660.46689521 -9.04125869337 c 0
 489.564740525 -9.04125869337 393.470203946 112.943039054 393.470203946 284.892030048 c 0
 393.470203946 358.865655558 405.536861519 406.336308322 432.058765479 526.813873222 c 2
 456.082377671 634.920627933 l 2
 459.346637448 649.810564613 460.820740063 662.186221002 460.820740063 672.382862041 c 0
 460.820740063 738.677309163 399.08085486 750.466052024 325.57731794 750.990568259 c 2
 69.8040779643 750.990568259 l 1
 162.195922036 881.010238742 l 1
 418.42268206 881.010238742 l 2
 516.814761268 880.308117799 590.834254562 859.070865457 590.834254562 764.852760656 c 0
 590.834254562 748.331217352 588.422159442 729.626839784 583.917622329 709.079372067 c 2
 559.941234521 601.186126778 l 2
 534.303540022 484.725143903 523.486775858 439.539180195 523.486775858 377.168790337 c 0
 523.486775858 230.012232257 607.385877914 121.013126743 752.491762238 121.013126743 c 0
 885.475875031 121.013126743 971.918920185 204.860244338 1039.41629121 283.524606994 c 0
 1151.77650747 416.538847876 1262.10352599 637.868234469 1283.1619498 845.250914815 c 0
 1285.17271812 867.102049972 1286.17279147 887.844027252 1286.17279147 907.489393284 c 0
 1286.17279147 1068.73430765 1210.73331728 1170.89853797 1089.2541488 1210.17209771 c 0
 1058.18234095 1219.51905867 1026.52900714 1224.05731584 994.332651963 1224.05731584 c 0
 865.275214889 1224.05731584 788.197633295 1169.66658768 737.052254603 1110.33750906 c 1
 666.947745397 1137.66249094 l 1
EndSplineSet
EndChar

StartChar: uni1710
Encoding: 5904 5904 19
GlifName: uni1710
Width: 1844
GlyphClass: 2
Flags: HMW
AnchorPoint: "Anchor1" 1218 -158 basechar 0
AnchorPoint: "Anchor0" 976 1426 basechar 0
AnchorPoint: "Anchor-1" 1218 -158 basechar 0
AnchorPoint: "Anchor-0" 976 1386 basechar 0
LayerCount: 2
Back
SplineSet
907.884765625 127.897460938 m 4
 1014.32910156 86.703125 1131.70703125 62.12890625 1243.96191406 62.12890625 c 4
 1354.77929688 62.12890625 1460.60351562 86.078125 1545.98535156 141.630859375 c 4
 1624.25683594 194.3046875 1697.29882812 281.341796875 1697.29882812 406.0859375 c 4
 1697.29882812 512.962890625 1639.65722656 592.37109375 1570.8515625 640.259765625 c 4
 1491.64941406 692.547851562 1418.86035156 702.704101562 1279.88476562 703.176757812 c 6
 1219.88476562 703.176757812 l 5
 1294.54492188 703.23046875 1354.34375 708.853515625 1399.28125 720.045898438 c 4
 1519.87792969 751.646484375 1638.06640625 831.958984375 1655.88476562 968.376953125 c 4
 1656.71191406 976.448242188 1657.10742188 984.30859375 1657.10742188 991.9609375 c 4
 1657.10742188 1153.109375 1500.46582031 1231.01171875 1356.92675781 1231.01171875 c 4
 1140 1231.01171875 980.354577097 1016.14939436 864 812 c 6
 424 40 l 5
 424 1200 l 5
 40 1200 l 1029
EndSplineSet
Fore
SplineSet
1590.67327052 949.563242941 m 4
 1590.67327052 1091.64040822 1444.90660615 1164.5775674 1314.52906325 1164.5775674 c 0
 1210.3390975 1164.5775674 1149.88623037 1118.73920332 1093.46860082 1062.32157377 c 0
 1027.12346124 995.976434192 968.71491146 905.467911365 918.634786281 817.709758193 c 2
 452 0 l 1
 357.565429688 0 l 1
 357.565848649 1133.56584865 l 1
 -2.39769455859 1133.56584865 l 1
 82.3976945586 1266.43415135 l 1
 490.43 1266.43415135 l 1
 490.434151351 246.711196016 l 1
 809.365213719 806.290241807 l 2
 909.449801349 981.893200105 1042.247424 1173.58428141 1232.11506199 1259.50353037 c 0
 1288.07207156 1284.82529813 1343.79221607 1297.4458701 1399.32445237 1297.4458701 c 0
 1560.40768056 1297.4458701 1723.54157323 1210.39815482 1723.54157323 1034.35863206 c 0
 1723.54157323 984.507573246 1712.64972395 949.28846023 1693.21312753 907.897809084 c 0
 1663.84108788 845.349417362 1608.42738413 782.850109616 1552.16700662 741.518814023 c 1
 1666.22790234 699.703877974 1763.73297948 600.6951948 1763.73297948 448.483632059 c 0
 1763.73297948 279.711868765 1653.26846432 161.41822274 1547.1903009 91.2163552256 c 0
 1452.97146113 29.913923376 1340.89099047 -4.30524510102 1201.5642195 -4.30524510102 c 0
 1083.77684614 -4.30524510102 963.691048329 21.1378166561 854.818698111 63.2718027409 c 1
 960.950833139 192.523119134 l 1
 1064.9671548 152.268433344 1179.63721636 128.563057601 1286.35960862 128.563057601 c 0
 1467.92824013 128.563057601 1630.86467677 183.074413349 1630.86467677 363.688242941 c 0
 1630.86467677 499.227868151 1527.06436329 594.608565314 1412.71275296 622.26767381 c 0
 1367.51507426 633.199985957 1313.78327432 636.483122919 1237.48707107 636.742606461 c 2
 1177.48707107 636.742606461 l 1
 1262.25419274 769.610898993 l 1
 1428.57675882 769.730552736 1590.67327052 793.536760347 1590.67327052 949.563242941 c 4
EndSplineSet
EndChar

StartChar: uni1711
Encoding: 5905 5905 20
GlifName: uni1711
Width: 2098
GlyphClass: 2
Flags: HMW
AnchorPoint: "Anchor1" 1014 0 basechar 0
AnchorPoint: "Anchor0" 1064 1386 basechar 0
AnchorPoint: "Anchor-1" 1014 0 basechar 0
AnchorPoint: "Anchor-0" 1064 1386 basechar 0
LayerCount: 2
Back
SplineSet
140 706 m 0
 267.891601562 594.35546875 422.5078125 538.211914062 603.848632812 537.5703125 c 0
 613.908203125 537.583007812 623.291992188 537.7265625 632 538 c 0
 730.284179688 541.354492188 871.943359375 572.362304688 1056.97851562 631.022460938 c 2
 1058.97851562 631.657226562 l 1
 1062.85839844 632.887695312 l 1
 1064.859375 633.521484375 l 1
 1066.859375 634.155273438 l 1
 1068.953125 634.819335938 l 2
 1253.36425781 692.815429688 1399.71386719 720.54296875 1508 718 c 0
 1677.74804688 713.54296875 1822.25878906 656.770507812 1941.53027344 547.684570312 c 0
 1947.07519531 542.536132812 1951.89746094 537.974609375 1956 534 c 1024
EndSplineSet
Fore
SplineSet
1896.06168951 473.732761894 m 1
 1777.82014675 588.287172488 1626.62037257 653.151130797 1447.95175354 653.151130797 c 0
 1345.85429216 653.151130797 1196.06442688 622.768759911 1025.27919192 568.564305787 c 0
 820.458317673 503.631647961 690.004024599 472.727077361 557.693178038 472.560099305 c 0
 369.845154166 473.22472399 211.068774949 531.342313689 80.6221858753 645.217252406 c 1
 199.377814125 766.782747594 l 1
 324.714428176 657.368623811 475.170470834 603.199104135 650.004087587 602.580525695 c 0
 769.735199331 602.731627967 904.625944754 635.123780071 1100.83067979 697.333801312 c 0
 1281.28596162 754.085805831 1428.00288348 783.169324447 1540.35377832 783.169324447 c 0
 1733.03296459 783.169324447 1892.28448644 714.065158459 2015.93831049 594.267238106 c 1
 1896.06168951 473.732761894 l 1
EndSplineSet
EndChar

StartChar: uni1712
Encoding: 5906 5906 21
GlifName: uni1712
Width: 0
VWidth: 0
GlyphClass: 4
Flags: HMW
AnchorPoint: "Mkmk" -590 1560 mark 0
AnchorPoint: "Mkmk" -74 1560 basemark 0
AnchorPoint: "Anchor0" -342 1386 mark 0
AnchorPoint: "Anchor-0" -342 1386 mark 0
LayerCount: 2
Fore
SplineSet
-485 1552 m 256
 -485 1633 -419 1699 -338 1699 c 256
 -257 1699 -191 1633 -191 1552 c 256
 -191 1471 -257 1405 -338 1405 c 256
 -419 1405 -485 1471 -485 1552 c 256
EndSplineSet
EndChar

StartChar: uni1713
Encoding: 5907 5907 22
GlifName: uni1713
Width: 0
VWidth: 0
GlyphClass: 4
Flags: HMW
AnchorPoint: "Mkmk" 30 -200 basemark 0
AnchorPoint: "Mkmk" -446 -200 mark 0
AnchorPoint: "Anchor1" -196 0 mark 0
AnchorPoint: "Anchor-1" -196 0 mark 0
LayerCount: 2
Fore
SplineSet
-343 -199 m 256
 -343 -118 -277 -52 -196 -52 c 256
 -115 -52 -49 -118 -49 -199 c 256
 -49 -280 -115 -345 -196 -345 c 256
 -277 -345 -343 -280 -343 -199 c 256
EndSplineSet
EndChar

StartChar: uni1714
Encoding: 5908 5908 23
GlifName: uni1714
Width: 0
VWidth: 0
GlyphClass: 4
Flags: HMW
AnchorPoint: "Anchor1" -248 0 mark 0
AnchorPoint: "Anchor-1" -248 0 mark 0
LayerCount: 2
Fore
SplineSet
-313 -366 m 257
 -305 -250 l 257
 -424 -258 l 257
 -424 -123 l 257
 -305 -131 l 257
 -313 -12 l 257
 -178 -12 l 257
 -186 -131 l 257
 -70 -123 l 257
 -70 -258 l 257
 -186 -250 l 257
 -178 -366 l 257
 -313 -366 l 257
EndSplineSet
EndChar

StartChar: uni1735
Encoding: 5941 5941 24
GlifName: uni1735
Width: 658
GlyphClass: 2
Flags: HMW
LayerCount: 2
Back
SplineSet
108 -276 m 29
 512 1500 l 1053
EndSplineSet
Fore
SplineSet
171.856590664 -239.192055263 m 1
 44.1434093361 -312.807944737 l 1
 448.143409336 1463.19205526 l 1
 575.856590664 1536.80794474 l 1
 171.856590664 -239.192055263 l 1
EndSplineSet
EndChar

StartChar: uni1736
Encoding: 5942 5942 25
GlifName: uni1736
Width: 976
GlyphClass: 2
Flags: HMW
LayerCount: 2
Back
SplineSet
428 -276 m 25
 832 1500 l 1049
108 -276 m 25
 512 1500 l 1049
EndSplineSet
Fore
SplineSet
491.856590664 -239.192055263 m 1
 364.143409336 -312.807944737 l 1
 768.143409336 1463.19205526 l 1
 895.856590664 1536.80794474 l 1
 491.856590664 -239.192055263 l 1
171.856590664 -239.192055263 m 1
 44.1434093361 -312.807944737 l 1
 448.143409336 1463.19205526 l 1
 575.856590664 1536.80794474 l 1
 171.856590664 -239.192055263 l 1
EndSplineSet
EndChar

StartChar: uni25CC
Encoding: 9676 9676 29
GlifName: uni25C_C_
Width: 1188
VWidth: 0
GlyphClass: 2
Flags: HMW
AnchorPoint: "Anchor1" 590 0 basechar 0
AnchorPoint: "Anchor0" 600 1180 basechar 0
AnchorPoint: "Anchor-1" 590 0 basechar 0
AnchorPoint: "Anchor-0" 600 1180 basechar 0
LayerCount: 2
Fore
SplineSet
646 1028 m 256
 646 992 629 974 594 974 c 256
 559 974 542 992 542 1028 c 256
 542 1063 559 1080 594 1080 c 256
 629 1080 646 1063 646 1028 c 256
816 992 m 256
 816 957 799 940 766 940 c 256
 729 940 710 957 710 992 c 256
 710 1028 729 1046 766 1046 c 256
 799 1046 816 1028 816 992 c 256
478 992 m 256
 478 957 460 940 424 940 c 256
 389 940 372 957 372 992 c 256
 372 1028 389 1046 424 1046 c 256
 460 1046 478 1028 478 992 c 256
960 896 m 256
 960 861 943 844 910 844 c 256
 874 844 856 861 856 896 c 256
 856 932 874 950 910 950 c 256
 943 950 960 932 960 896 c 256
334 896 m 256
 334 861 316 844 280 844 c 256
 245 844 228 861 228 894 c 256
 228 931 245 950 280 950 c 256
 316 950 334 932 334 896 c 256
1058 752 m 256
 1058 716 1040 698 1004 698 c 256
 969 698 952 716 952 752 c 256
 952 787 970 804 1006 804 c 256
 1041 804 1058 787 1058 752 c 256
236 752 m 256
 236 716 219 698 186 698 c 256
 149 698 130 716 130 752 c 256
 130 787 148 804 184 804 c 256
 219 804 236 787 236 752 c 256
1092 582 m 256
 1092 547 1075 530 1042 530 c 256
 1006 530 988 547 988 582 c 256
 988 617 1006 634 1042 634 c 256
 1075 634 1092 617 1092 582 c 256
202 582 m 256
 202 547 185 530 150 530 c 256
 114 530 96 547 96 582 c 256
 96 617 114 634 150 634 c 256
 185 634 202 617 202 582 c 256
1058 412 m 256
 1058 377 1040 360 1004 360 c 256
 969 360 952 377 952 412 c 256
 952 448 969 466 1004 466 c 256
 1040 466 1058 448 1058 412 c 256
236 412 m 256
 236 377 219 360 184 360 c 256
 148 360 130 377 130 412 c 256
 130 448 148 466 184 466 c 256
 219 466 236 448 236 412 c 256
960 266 m 256
 960 231 943 214 910 214 c 256
 874 214 856 231 856 266 c 256
 856 302 874 320 910 320 c 256
 943 320 960 302 960 266 c 256
334 266 m 256
 334 231 316 214 280 214 c 256
 245 214 228 231 228 266 c 256
 228 302 245 320 280 320 c 256
 316 320 334 302 334 266 c 256
816 170 m 256
 816 137 799 120 766 120 c 256
 729 120 710 137 710 170 c 256
 710 206 729 224 766 224 c 256
 799 224 816 206 816 170 c 256
478 174 m 256
 478 138 460 120 424 120 c 256
 389 120 372 137 372 170 c 256
 372 206 389 224 424 224 c 256
 460 224 478 207 478 174 c 256
646 138 m 256
 646 102 629 84 594 84 c 256
 559 84 542 102 542 138 c 256
 542 173 559 190 594 190 c 256
 629 190 646 173 646 138 c 256
EndSplineSet
EndChar

StartChar: uni170D
Encoding: 5901 5901 30
GlifName: uni170D_
Width: 2096
GlyphClass: 2
Flags: HMW
AnchorPoint: "Anchor1" 827 -13 basechar 0
AnchorPoint: "Anchor0" 1054 1386 basechar 0
AnchorPoint: "Anchor-1" 964 0 basechar 0
AnchorPoint: "Anchor-0" 1054 1386 basechar 0
LayerCount: 2
Back
SplineSet
1454 388 m 4
 1421.12011719 309.045898438 1379.78613281 235.711914062 1330 168 c 4
 1271.95214844 90.28515625 1205.28515625 22.28515625 1130 -36 c 1028
486 918 m 5
 454 886 l 6
 386.801757812 818.205078125 340.543945312 763.393554688 315.225585938 721.568359375 c 4
 275.190429688 652.998046875 257.448242188 584.475585938 262 516 c 4
 269.700195312 427.359375 309.1328125 355.033203125 380.296875 299.021484375 c 4
 444.841796875 250.083007812 524.076171875 223.7421875 618 220 c 4
 707.6875 216.799804688 833.54296875 241.62890625 995.567382812 294.486328125 c 6
 997.569335938 295.139648438 l 5
 999.5703125 295.79296875 l 5
 1001.57128906 296.446289062 l 5
 1003.57226562 297.100585938 l 5
 1005.57324219 297.75390625 l 5
 1007.57324219 298.408203125 l 5
 1009.57421875 299.0625 l 5
 1013.18945312 300.245117188 l 6
 1025.34667969 304.217773438 1034.12597656 307.083984375 1039.52929688 308.842773438 c 4
 1214.14160156 365.2109375 1354.96484375 394.262695312 1462 396 c 4
 1647.30371094 398.5390625 1807.98339844 343.985351562 1944.03808594 232.338867188 c 4
 1948.04101562 229.014648438 1951.36132812 226.235351562 1954 224 c 1028
142 1080 m 4
 271.310546875 969.6875 426.37109375 914.9765625 607.181640625 915.868164062 c 4
 611.455078125 915.907226562 615.061523438 915.951171875 618 916 c 4
 720.006835938 918.362304688 860.723632812 947.389648438 1040.14941406 1003.08300781 c 4
 1222.76367188 1059.40722656 1363.37988281 1089.04589844 1462 1092 c 4
 1642.984375 1096.96582031 1799.81640625 1045.70898438 1932.49707031 938.229492188 c 4
 1940.44628906 931.693359375 1947.61425781 925.6171875 1954 920 c 1028
EndSplineSet
Fore
SplineSet
1895.05981283 162.824368574 m 1
 1765.40922025 272.657901433 1608.90431609 329.650593931 1431.93533598 329.650593931 c 0
 1320.75692058 329.650593931 1191.29479905 302.56059129 1014.40726326 245.457939469 c 0
 999.834396531 240.698181466 985.262750976 235.93660492 970.688655307 231.180466851 c 0
 813.798915749 179.998136092 687.316269438 153.287969117 591.522775295 153.287969117 c 0
 375.504424093 153.287969117 194.878092661 279.845114972 194.878092661 494.337451875 c 0
 194.878092661 675.368713933 311.613505066 799.676773583 425.715728753 914.284271247 c 2
 457.715728753 946.284271247 l 1
 514.284271247 889.715728753 l 1
 482.578662573 858.010120078 l 2
 421.327494049 796.188733069 383.466778086 749.302891969 368.595560211 725.094007949 c 0
 343.119554789 681.136376661 327.727812898 633.030626919 327.727812898 579.609291031 c 0
 327.727812898 397.431726893 491.163988314 286.16387447 675.908352673 286.16387447 c 0
 759.473552631 286.16387447 907.664866651 320.987882687 1051 367.771870271 c 0
 1234.47176575 427.656286675 1390.49845076 462.518784166 1516.71442871 462.518784166 c 0
 1709.9332561 462.518784166 1876.59374008 400.681559155 2012.94018717 285.175631426 c 1
 1895.05981283 162.824368574 l 1
1894.7895132 859.057708241 m 1
 1772.35563061 966.75608603 1616.38467734 1025.89513068 1443.462449 1025.89513068 c 0
 1329.02004143 1025.89513068 1207.33864622 999.006184234 1014.04594636 939.388384179 c 0
 822.450322559 879.917533021 683.902530258 849.424466474 560.606265147 849.424466474 c 0
 373.595464775 849.424466474 214.605733864 906.604761552 83.0094610693 1018.86717319 c 1
 200.990538931 1141.13282681 l 1
 325.941828819 1034.53913048 474.177156141 982.290416045 645.06891091 982.290416045 c 0
 754.105527314 982.290416045 882.051614112 1009.60197182 1066.25288176 1066.77763144 c 0
 1266.22919039 1128.45687537 1399.1735869 1158.76277338 1528.21088659 1158.76277338 c 0
 1717.84569888 1158.76277338 1883.79019958 1094.78622689 2013.2104868 980.942291759 c 1
 1894.7895132 859.057708241 l 1
1118.40253948 7.01599736938 m 1
 1238.18407316 99.7498874794 1330.16422743 218.473052032 1393.15204751 369.725012763 c 1
 1514.84795249 406.274987237 l 1
 1433.70974584 211.438702523 1300.0582622 43.6630677437 1141.59746052 -79.0159973694 c 1
 1118.40253948 7.01599736938 l 1
EndSplineSet
EndChar

StartChar: uni1734
Encoding: 5940 5940 31
GlifName: uni1734
Width: 170
VWidth: 1000
GlyphClass: 2
Flags: HMW
LayerCount: 2
Back
SplineSet
-552 -600 m 5
 -508 -600 l 6
 -444.788085938 -600 -381.080078125 -599.069335938 -319.306640625 -585.663085938 c 4
 -257.532226562 -572.255859375 -198.2265625 -546.379882812 -148 -508 c 4
 -96.732421875 -468.825195312 -55.45703125 -417.310546875 -25.26171875 -360.291015625 c 4
 4.93359375 -303.270507812 24.4296875 -241.115234375 38.5 -178.146484375 c 4
 66.640625 -52.208984375 79.427734375 76.607421875 100 204 c 6
 152 526 l 1029
  Spiro
    -552 -600 {
    -508 -600 ]
    -148 -508 o
    100 204 [
    152 526 v
    0 0 z
  EndSpiro
EndSplineSet
Fore
SplineSet
-461.803710938 -534.990234375 m 2
 -320.930053172 -534.990234375 -201.710986323 -517.245166011 -131.934570312 -447.46875 c 0
 -8.08013056967 -323.614310257 1.17924671621 -48.6497318947 35.517578125 163.98828125 c 6
 87.517578125 485.98828125 l 1
 216.482421875 566.01171875 l 1
 164.482421875 244.01171875 l 2
 130.360927172 32.7227441545 119.516946501 -176.105457507 30.49609375 -344.212890625 c 0
 -73.6682401492 -540.911725591 -206 -665.009765625 -554.196289062 -665.009765625 c 2
 -598.196289062 -665.009765625 l 1
 -505.803710938 -534.990234375 l 1
 -461.803710938 -534.990234375 l 2
EndSplineSet
EndChar

StartChar: uni1712.hollow
Encoding: 65536 -1 32
GlifName: uni1712.hollow
Width: 0
VWidth: 0
GlyphClass: 4
Flags: HMW
AnchorPoint: "Mkmk" -74 1560 basemark 0
AnchorPoint: "Mkmk" -590 1560 mark 0
AnchorPoint: "Anchor0" -342 1386 mark 0
AnchorPoint: "Anchor-0" -342 1386 mark 0
LayerCount: 2
Fore
SplineSet
-440 1559 m 260
 -440 1506 -398 1464 -345 1464 c 260
 -292 1464 -250 1506 -250 1559 c 260
 -250 1612 -292 1654 -345 1654 c 260
 -398 1654 -440 1612 -440 1559 c 260
-485 1552 m 260
 -485 1633 -419 1699 -338 1699 c 260
 -257 1699 -191 1633 -191 1552 c 260
 -191 1471 -257 1405 -338 1405 c 260
 -419 1405 -485 1471 -485 1552 c 260
EndSplineSet
EndChar

StartChar: uni1713.hollow
Encoding: 65537 -1 33
GlifName: uni1713.hollow
Width: 0
VWidth: 0
GlyphClass: 4
Flags: HMW
AnchorPoint: "Mkmk" 30 -140 basemark 0
AnchorPoint: "Mkmk" -446 -140 mark 0
AnchorPoint: "Anchor1" -196 60 mark 0
AnchorPoint: "Anchor-1" -196 60 mark 0
LayerCount: 2
Fore
SplineSet
-298 -119 m 260
 -298 -172 -255 -214 -202 -214 c 260
 -149 -214 -107 -172 -107 -119 c 260
 -107 -66 -149 -24 -202 -24 c 260
 -255 -24 -298 -66 -298 -119 c 260
-342 -126 m 256
 -342 -45 -276 21 -195 21 c 256
 -114 21 -49 -45 -49 -126 c 256
 -49 -207 -114 -272 -195 -272 c 256
 -276 -272 -342 -207 -342 -126 c 256
EndSplineSet
EndChar

StartChar: uni171F
Encoding: 5919 5919 34
GlifName: uni171F_
Width: 1618
VWidth: 0
GlyphClass: 2
Flags: HMW
AnchorPoint: "Anchor-1" 308 -210 basechar 0
AnchorPoint: "Anchor-0" 1202 1764 basechar 0
AnchorPoint: "Anchor0" 1202 1784 basechar 0
AnchorPoint: "Anchor1" 308 -210 basechar 0
LayerCount: 2
Back
SplineSet
110 219 m 29
 110 219 163.713057928 30 305 30 c 4
 443 30 478.052650467 143.922545046 491 183 c 6
 821 1179 l 6
 890.229750499 1387.94797423 1022 1505 1184 1505 c 4
 1373 1505 1463 1368 1463 1215 c 4
 1463 1053 1334 921 1133 921 c 5
 1270.95530322 921.00000003 1403 801 1403 651 c 4
 1403 462 1151.64578397 398.919887377 956 399 c 5
 1169 399 1367 261 1367 39 c 4
 1367 -204 956 -297 722 -153 c 1028
EndSplineSet
Fore
SplineSet
1395.6756116 1168.52794234 m 0
 1395.6756116 1321.04671164 1299.76437013 1437.6756116 1137.52794234 1437.6756116 c 0
 1017 1437.6756116 926.068413694 1331.99556471 885.278604951 1208.88450559 c 2
 554.575530422 210.762498835 l 2
 536.124520752 154.86980658 510.796051743 103.591440013 460.14683091 52.9422191799 c 0
 393.658739294 -13.5458724359 323.505370791 -37.3243884019 258.527942336 -37.3243884019 c 0
 126.672463923 -37.3243884019 57.143038531 117.488884145 43.6427524019 164.992306488 c 1
 176.357247598 273.007693512 l 1
 185.00372018 242.475414491 246.456012126 97.3243884019 351.472057664 97.3243884019 c 0
 405 97.3243884019 428.052360197 160.954245266 459 254 c 2
 756.721395049 1149.11549441 l 2
 793.597675714 1259.9860289 848.748172919 1355.25606022 925.56651574 1432.07440304 c 0
 1028.59907013 1535.10695742 1136.65653911 1572.3243884 1230.47205766 1572.3243884 c 0
 1420.90378303 1572.3243884 1530.3243884 1440.86597525 1530.3243884 1261.47205766 c 0
 1530.3243884 1115.17967917 1440.84407635 1002.93882421 1344.50231076 934.988368134 c 1
 1414.296911 885.640598494 1460.32421875 801.421875 1460.32421875 697.471679688 c 0
 1460.32421875 539.893468009 1367.84020913 442.783223666 1249.64945867 401.69102842 c 1
 1352.07998979 341.478202937 1434.3243884 234.191842965 1434.3243884 85.4720576642 c 0
 1434.3243884 -13.8467575804 1382.97069702 -83.0186536305 1329.1814326 -136.807918057 c 0
 1233.4929613 -232.496389353 1110.61576864 -288.68516962 937.087839451 -288.68516962 c 0
 839.044606044 -288.68516962 741.793750731 -265.653311404 663.168856996 -217.268761413 c 1
 780.831143004 -88.731238587 l 1
 853.350832238 -133.358739654 944.174284154 -153.895690621 1031.47141776 -153.895690621 c 0
 1161.71390268 -153.895690621 1307.80476362 -110.418687407 1307.80476362 42.056803425 c 0
 1307.80476362 192.855023663 1088.69675424 331.575229842 909.5135795 331.675614538 c 1
 1002.47205766 466.324388402 l 1
 1132.78486661 466.324388402 1339 468.870598775 1339 661 c 0
 1339 777.186523438 1194.47617633 853.675611598 1086.52794234 853.675611598 c 1
 1179.47205768 988.324388402 l 1
 1316.85310821 988.324388407 1395.6756116 1061 1395.6756116 1168.52794234 c 0
EndSplineSet
EndChar

StartChar: uni170C.avar
Encoding: 65538 -1 36
GlifName: uni170C_.avar
Width: 2078
GlyphClass: 2
Flags: HMW
AnchorPoint: "Anchor1" 1166 0 basechar 0
AnchorPoint: "Anchor0" 1040 1386 basechar 0
AnchorPoint: "Anchor-1" 1166 0 basechar 0
AnchorPoint: "Anchor-0" 1040 1386 basechar 0
LayerCount: 2
Back
SplineSet
114 812 m 5
 358 812 l 6
 448.339987322 812 526.846375626 811.971405418 529.026367188 727 c 4
 528.862304688 718.517578125 527.853515625 708.184570312 526 696 c 6
 502 540 l 6
 485.836463082 433.847985398 478.414200413 387.868687841 478.414200413 335.409491375 c 4
 478.414200413 181.185859224 554.617563469 59.750990945 704.174423679 59.750990945 c 4
 753.668963079 59.750990945 804.419589994 75.6734200975 854 104 c 4
 929.865234375 148.669921875 1013.01660156 228.594726562 1103.45410156 343.774414062 c 4
 1161.015625 417.500976562 1225.86425781 513.576171875 1298 632 c 6
 1522 1000 l 6
 1566.63085938 1072.01855469 1608.44433594 1122.24804688 1647.43847656 1150.69042969 c 4
 1696.16813461 1184.54812852 1750.70609222 1200.68062614 1803.15748192 1200.68062614 c 4
 1916.77019145 1200.68062614 2026.35756776 1116.39461951 2026.35756776 994.286333485 c 4
 2026.35756776 858.712028493 1905.95002472 776.091527397 1769.8679225 776.091527397 c 4
 1630 776.091527397 1512 849 1482 909 c 1028
EndSplineSet
Fore
SplineSet
407.696248857 877.010238742 m 2
 505.435662512 877.010238742 594.026447491 872.023557582 594.026447491 772.563473139 c 0
 593.821400121 761.962035895 592.597696581 749.906723379 590.536220165 736.355068351 c 0
 576.067511724 642.308680593 543.424439154 459.098912833 543.424439154 381.60541341 c 0
 543.424439154 242.865170316 610.479404097 124.761229687 750.370345715 124.761229687 c 0
 792.874127657 124.761229849 832.007700234 138.215789207 865.722336598 157.345082593 c 0
 937.255865776 199.743522744 1002.60953131 273.996504382 1062.66863342 350.463985339 c 0
 1113.8356398 416.024341353 1176.09644398 507.779930383 1246.17026697 622.818746348 c 2
 1470.77379875 991.810262838 l 2
 1537.27540693 1099.12053589 1619.13467094 1203.01811597 1744.65577524 1247.19031365 c 0
 1781.93363939 1260.30878637 1816.57220426 1265.69086488 1849.35340396 1265.69086488 c 0
 1977.77519982 1265.69086488 2091.3678065 1174.31134843 2091.3678065 1040.48225552 c 0
 2091.3678065 899.397034873 1966.27212072 782.638165779 1866.51605124 740.186143522 c 0
 1817.70447478 719.413972555 1770.76010388 711.081288656 1723.67200046 711.081288656 c 0
 1605.62857992 711.081288656 1506.06040778 758.136093596 1452.3753158 809.648996771 c 1
 1349.82973303 641.181253652 l 2
 1234.12180974 451.225833425 1148.59527782 323.002227121 1012.47281775 186.879767059 c 0
 924.532536652 98.9394859611 803.318505148 -5.25924779664 657.978501644 -5.25924779664 c 0
 491.956994225 -5.25924779664 413.403961671 126.848357191 413.403961671 289.213569339 c 0
 413.403961671 376.919738718 445.944943293 554.772261474 461.463779835 655.644931649 c 0
 463.048013469 666.059307661 463.839152336 674.428306595 464.005740048 680.715776877 c 0
 461.973287928 743.898517991 400.670572078 747.027579564 333.938408718 747.027579564 c 2
 67.8040779643 746.989761258 l 1
 160.195922036 877.010238742 l 1
 407.696248857 877.010238742 l 2
1545.89717543 963.292051887 m 1
 1582.96534493 893.958093517 1698.88567126 841.101766139 1816.06384453 841.101766139 c 0
 1864.2232025 841.101766139 1929.86325934 853.889357313 1945.6210103 879.446822748 c 0
 1955.39948977 895.306519432 1961.34732901 918.257558303 1961.34732901 948.090411449 c 0
 1961.34732901 1055.33358086 1858.94064655 1135.6703874 1756.96155989 1135.6703874 c 0
 1709.97716939 1135.6703874 1662.23749135 1120.39433682 1638.99523707 1097.15208254 c 0
 1626.41240854 1084.56925401 1601.66782881 1054.02780492 1573.51727166 1008.66792425 c 2
 1545.89717543 963.292051887 l 1
EndSplineSet
EndChar

StartChar: uni170D.avar
Encoding: 65539 -1 37
GlifName: uni170D_.avar
Width: 2096
GlyphClass: 2
Flags: HMW
AnchorPoint: "Anchor1" 853 -40 basechar 0
AnchorPoint: "Anchor0" 1054 1386 basechar 0
AnchorPoint: "Anchor-1" 964 0 basechar 0
AnchorPoint: "Anchor-0" 1054 1386 basechar 0
LayerCount: 2
Back
SplineSet
1578 631 m 4
 1554 515 1498 397 1420 283 c 4
 1346.79988659 176.015218857 1266 93 1178 37 c 1028
486 918 m 5
 454 886 l 6
 386.801757812 818.205078125 340.543945312 763.393554688 315.225585938 721.568359375 c 4
 275.190429688 652.998046875 257.448242188 584.475585938 262 516 c 4
 269.700195312 427.359375 309.1328125 355.033203125 380.296875 299.021484375 c 4
 444.841796875 250.083007812 524.076171875 223.7421875 618 220 c 4
 707.6875 216.799804688 833.54296875 241.62890625 995.567382812 294.486328125 c 6
 997.569335938 295.139648438 l 5
 999.5703125 295.79296875 l 5
 1001.57128906 296.446289062 l 5
 1003.57226562 297.100585938 l 5
 1005.57324219 297.75390625 l 5
 1007.57324219 298.408203125 l 5
 1009.57421875 299.0625 l 5
 1013.18945312 300.245117188 l 6
 1025.34667969 304.217773438 1034.12597656 307.083984375 1039.52929688 308.842773438 c 4
 1214.14160156 365.2109375 1354.96484375 394.262695312 1462 396 c 4
 1647.30371094 398.5390625 1807.98339844 343.985351562 1944.03808594 232.338867188 c 4
 1948.04101562 229.014648438 1951.36132812 226.235351562 1954 224 c 1028
142 1080 m 4
 271.310546875 969.6875 426.37109375 914.9765625 607.181640625 915.868164062 c 4
 611.455078125 915.907226562 615.061523438 915.951171875 618 916 c 4
 720.006835938 918.362304688 860.723632812 947.389648438 1040.14941406 1003.08300781 c 4
 1222.76367188 1059.40722656 1363.37988281 1089.04589844 1462 1092 c 4
 1642.984375 1096.96582031 1799.81640625 1045.70898438 1932.49707031 938.229492188 c 4
 1940.44628906 931.693359375 1947.61425781 925.6171875 1954 920 c 1028
EndSplineSet
Fore
SplineSet
1895.05981283 162.824368574 m 5
 1765.40922025 272.657901433 1608.90431609 329.650593931 1431.93533598 329.650593931 c 4
 1320.75692058 329.650593931 1191.29479905 302.56059129 1014.40726326 245.457939469 c 4
 999.834396531 240.698181466 985.262750976 235.93660492 970.688655307 231.180466851 c 4
 813.798915749 179.998136092 687.316269438 153.287969117 591.522775295 153.287969117 c 4
 375.504424093 153.287969117 194.878092661 279.845114972 194.878092661 494.337451875 c 4
 194.878092661 675.368713933 311.613505066 799.676773583 425.715728753 914.284271247 c 6
 457.715728753 946.284271247 l 5
 514.284271247 889.715728753 l 5
 482.578662573 858.010120078 l 6
 421.327494049 796.188733069 383.466778086 749.302891969 368.595560211 725.094007949 c 4
 343.119554789 681.136376661 327.727812898 633.030626919 327.727812898 579.609291031 c 4
 327.727812898 397.431726893 491.163988314 286.16387447 675.908352673 286.16387447 c 4
 759.473552631 286.16387447 907.664866651 320.987882687 1051 367.771870271 c 4
 1234.47176575 427.656286675 1390.49845076 462.518784166 1516.71442871 462.518784166 c 4
 1709.9332561 462.518784166 1876.59374008 400.681559155 2012.94018717 285.175631426 c 5
 1895.05981283 162.824368574 l 5
1894.7895132 859.057708241 m 5
 1772.35563061 966.75608603 1616.38467734 1025.89513068 1443.462449 1025.89513068 c 4
 1329.02004143 1025.89513068 1207.33864622 999.006184234 1014.04594636 939.388384179 c 4
 822.450322559 879.917533021 683.902530258 849.424466474 560.606265147 849.424466474 c 4
 373.595464775 849.424466474 214.605733864 906.604761552 83.0094610693 1018.86717319 c 5
 200.990538931 1141.13282681 l 5
 325.941828819 1034.53913048 474.177156141 982.290416045 645.06891091 982.290416045 c 4
 754.105527314 982.290416045 882.051614112 1009.60197182 1066.25288176 1066.77763144 c 4
 1266.22919039 1128.45687537 1399.1735869 1158.76277338 1528.21088659 1158.76277338 c 4
 1717.84569888 1158.76277338 1883.79019958 1094.78622689 2013.2104868 980.942291759 c 5
 1894.7895132 859.057708241 l 5
1513.91603896 593.1455156 m 1
 1642.08396104 668.8544844 l 1
 1616.23262956 543.906382224 1554.62119942 412.807110436 1467.39419466 285.321488106 c 0
 1424.19429373 222.183171355 1376.62056243 163.398819892 1323.5733635 110.351620962 c 0
 1275.34932177 62.1275792324 1223.5973588 19.9949629714 1171.31209941 -13.2774748204 c 1
 1184.68790059 87.2774748204 l 1
 1216.24946526 107.362106886 1245.07606159 130.849268412 1274.07588882 159.849095645 c 0
 1305.90280245 191.676009276 1339.15090025 231.782881379 1372.60580534 280.678511894 c 0
 1441.37880058 381.192889564 1491.76737044 486.093617776 1513.91603896 593.1455156 c 1
EndSplineSet
EndChar

StartChar: _ra_tail
Encoding: 65540 -1 38
GlifName: _ra_tail
Width: 2096
GlyphClass: 2
Flags: HMW
LayerCount: 2
Fore
SplineSet
1513.91603896 593.1455156 m 5
 1642.08396104 668.8544844 l 5
 1616.23262956 543.906382224 1554.62119942 412.807110436 1467.39419466 285.321488106 c 4
 1424.19429373 222.183171355 1376.62056243 163.398819892 1323.5733635 110.351620962 c 4
 1275.34932177 62.1275792324 1223.5973588 19.9949629714 1171.31209941 -13.2774748204 c 5
 1184.68790059 87.2774748204 l 5
 1216.24946526 107.362106886 1245.07606159 130.849268412 1274.07588882 159.849095645 c 4
 1305.90280245 191.676009276 1339.15090025 231.782881379 1372.60580534 280.678511894 c 4
 1441.37880058 381.192889564 1491.76737044 486.093617776 1513.91603896 593.1455156 c 5
EndSplineSet
EndChar

StartChar: uni1714.salt
Encoding: 65541 -1 39
GlifName: uni1714.salt
Width: 0
VWidth: 0
GlyphClass: 4
Flags: HMW
AnchorPoint: "Anchor1" -248 0 mark 0
AnchorPoint: "Anchor-1" -248 0 mark 0
LayerCount: 2
Fore
SplineSet
-416.827148438 -266.513671875 m 257
 -329.145507812 -190.145507812 l 257
 -418.948242188 -111.657226562 l 257
 -323.489257812 -16.197265625 l 257
 -245 -106 l 257
 -166.51171875 -16.197265625 l 257
 -71.0517578125 -111.657226562 l 257
 -160.854492188 -190.145507812 l 257
 -73.1728515625 -266.513671875 l 257
 -168.6328125 -361.97265625 l 257
 -245 -274.291992188 l 257
 -321.3671875 -361.97265625 l 257
 -416.827148438 -266.513671875 l 257
EndSplineSet
EndChar

StartChar: pahantig
Encoding: 65542 -1 40
GlifName: pahantig
Width: 444
VWidth: 0
GlyphClass: 2
Flags: HMW
LayerCount: 2
Back
Refer: 22 5907 N 1 0 0 1 420 826 2
Fore
SplineSet
77 627 m 256
 77 708 143 774 224 774 c 256
 305 774 371 708 371 627 c 256
 371 546 305 481 224 481 c 256
 143 481 77 546 77 627 c 256
EndSplineSet
EndChar

StartChar: pahantig_hollow
Encoding: 65543 -1 41
GlifName: pahantig_hollow
Width: 444
VWidth: 0
GlyphClass: 2
Flags: HMW
LayerCount: 2
Back
Refer: 33 -1 N 1 0 0 1 420 754 2
Fore
SplineSet
123 636 m 256
 123 583 165 541 218 541 c 256
 271 541 313 583 313 636 c 256
 313 689 271 731 218 731 c 256
 165 731 123 689 123 636 c 256
78 628 m 256
 78 709 144 775 225 775 c 256
 306 775 371 709 371 628 c 256
 371 547 306 482 225 482 c 256
 144 482 78 547 78 628 c 256
EndSplineSet
EndChar

StartChar: padalawa
Encoding: 65544 -1 42
GlifName: padalawa
Width: 444
VWidth: 0
GlyphClass: 2
Flags: HMW
LayerCount: 2
Back
Refer: 22 5907 N 1 0 0 1 420 606 2
Refer: 22 5907 N 1 0 0 1 420 1008 2
Fore
SplineSet
77 809 m 256
 77 890 143 956 224 956 c 256
 305 956 371 890 371 809 c 256
 371 728 305 663 224 663 c 256
 143 663 77 728 77 809 c 256
77 407 m 256
 77 488 143 554 224 554 c 256
 305 554 371 488 371 407 c 256
 371 326 305 261 224 261 c 256
 143 261 77 326 77 407 c 256
EndSplineSet
EndChar

StartChar: padalawa_hollow
Encoding: 65545 -1 43
GlifName: padalawa_hollow
Width: 444
VWidth: 0
GlyphClass: 2
Flags: HMW
LayerCount: 2
Back
Refer: 22 5907 N 1 0 0 1 420 606 2
Refer: 33 -1 N 1 0 0 1 420 934 2
Fore
SplineSet
123 815 m 256
 123 762 165 720 218 720 c 256
 271 720 313 762 313 815 c 256
 313 868 271 910 218 910 c 256
 165 910 123 868 123 815 c 256
78 808 m 256
 78 889 144 955 225 955 c 256
 306 955 371 889 371 808 c 256
 371 727 306 662 225 662 c 256
 144 662 78 727 78 808 c 256
77 407 m 256
 77 488 143 554 224 554 c 256
 305 554 371 488 371 407 c 256
 371 326 305 261 224 261 c 256
 143 261 77 326 77 407 c 256
EndSplineSet
EndChar

StartChar: padalawa_hollow2
Encoding: 65546 -1 44
GlifName: padalawa_hollow2
Width: 444
VWidth: 0
GlyphClass: 2
Flags: HMW
LayerCount: 2
Back
Refer: 22 5907 N 1 0 0 1 420 1008 2
Refer: 33 -1 N 1 0 0 1 420 534 2
Fore
SplineSet
123 415 m 256
 123 362 165 320 218 320 c 256
 271 320 313 362 313 415 c 256
 313 468 271 510 218 510 c 256
 165 510 123 468 123 415 c 256
78 408 m 256
 78 489 144 555 225 555 c 256
 306 555 371 489 371 408 c 256
 371 327 306 262 225 262 c 256
 144 262 78 327 78 408 c 256
77 809 m 256
 77 890 143 956 224 956 c 256
 305 956 371 890 371 809 c 256
 371 728 305 663 224 663 c 256
 143 663 77 728 77 809 c 256
EndSplineSet
EndChar

StartChar: padalawa_hollow_hollow
Encoding: 65547 -1 45
GlifName: padalawa_hollow_hollow
Width: 444
VWidth: 0
GlyphClass: 2
Flags: HMW
LayerCount: 2
Back
Refer: 33 -1 N 1 0 0 1 420 534 2
Refer: 33 -1 N 1 0 0 1 420 934 2
Fore
SplineSet
123 415 m 256
 123 362 165 320 218 320 c 256
 271 320 313 362 313 415 c 256
 313 468 271 510 218 510 c 256
 165 510 123 468 123 415 c 256
123 815 m 256
 123 762 165 720 218 720 c 256
 271 720 313 762 313 815 c 256
 313 868 271 910 218 910 c 256
 165 910 123 868 123 815 c 256
78 808 m 256
 78 889 144 955 225 955 c 256
 306 955 371 889 371 808 c 256
 371 727 306 662 225 662 c 256
 144 662 78 727 78 808 c 256
78 408 m 256
 78 489 144 555 225 555 c 256
 306 555 371 489 371 408 c 256
 371 327 306 262 225 262 c 256
 144 262 78 327 78 408 c 256
EndSplineSet
EndChar
